<svg id="enrichment_category_graph_svg" height="368.39952pt" version="1.1" viewBox="0 0 659.39976 368.39952" width="659.39976pt" xmlns="http://www.w3.org/2000/svg" xmlns:xlink="http://www.w3.org/1999/xlink">
 <metadata>
  <rdf:rdf xmlns:cc="http://creativecommons.org/ns#" xmlns:dc="http://purl.org/dc/elements/1.1/" xmlns:rdf="http://www.w3.org/1999/02/22-rdf-syntax-ns#">
   <cc:work>
    <dc:type rdf:resource="http://purl.org/dc/dcmitype/StillImage"/>
    <dc:date>2026-01-02T17:23:58.426209</dc:date>
    <dc:format>image/svg+xml</dc:format>
    <dc:creator>
     <cc:agent>
      <dc:title>Matplotlib v3.4.2, https://matplotlib.org/</dc:title>
     </cc:agent>
    </dc:creator>
   </cc:work>
  </rdf:rdf>
 </metadata>
 <defs>
  <style type="text/css">*{stroke-linecap:butt;stroke-linejoin:round;}</style>
 </defs>
 <g id="figure_1">
  <g id="patch_1">
   <path d="M 0 368.39952 &#10;L 659.39976 368.39952 &#10;L 659.39976 0 &#10;L 0 0 &#10;z&#10;" style="fill:none;"/>
  </g>
  <g id="axes_1">
   <g id="patch_2">
    <path d="M 166.767031 337.022801 &#10;L 547.529022 337.022801 &#10;L 547.529022 21.214531 &#10;L 166.767031 21.214531 &#10;z&#10;" style="fill:none;"/>
   </g>
   <g id="matplotlib.axis_1">
    <g id="xtick_1">
     <g id="line2d_1">
      <path clip-path="url(#p4355b843cd)" d="M 220.952392 337.022801 &#10;L 220.952392 21.214531 &#10;" style="fill:none;stroke:#d3d3d3;stroke-dasharray:2.22,0.96;stroke-dashoffset:0;stroke-width:0.6;"/>
     </g>
     <g id="line2d_2"/>
     <g id="text_1">
      <text style="font-family:Arial;font-size:9px;font-stretch:normal;font-style:normal;font-weight:normal;text-anchor:middle;" transform="rotate(-0, 220.952392, 346.964832)" x="220.952392" y="346.964832">2.7</text>
     </g>
    </g>
    <g id="xtick_2">
     <g id="line2d_3">
      <path clip-path="url(#p4355b843cd)" d="M 277.700573 337.022801 &#10;L 277.700573 21.214531 &#10;" style="fill:none;stroke:#d3d3d3;stroke-dasharray:2.22,0.96;stroke-dashoffset:0;stroke-width:0.6;"/>
     </g>
     <g id="line2d_4"/>
     <g id="text_2">
      <text style="font-family:Arial;font-size:9px;font-stretch:normal;font-style:normal;font-weight:normal;text-anchor:middle;" transform="rotate(-0, 277.700573, 346.964832)" x="277.700573" y="346.964832">2.8</text>
     </g>
    </g>
    <g id="xtick_3">
     <g id="line2d_5">
      <path clip-path="url(#p4355b843cd)" d="M 334.448754 337.022801 &#10;L 334.448754 21.214531 &#10;" style="fill:none;stroke:#d3d3d3;stroke-dasharray:2.22,0.96;stroke-dashoffset:0;stroke-width:0.6;"/>
     </g>
     <g id="line2d_6"/>
     <g id="text_3">
      <text style="font-family:Arial;font-size:9px;font-stretch:normal;font-style:normal;font-weight:normal;text-anchor:middle;" transform="rotate(-0, 334.448754, 346.964832)" x="334.448754" y="346.964832">2.9</text>
     </g>
    </g>
    <g id="xtick_4">
     <g id="line2d_7">
      <path clip-path="url(#p4355b843cd)" d="M 391.196936 337.022801 &#10;L 391.196936 21.214531 &#10;" style="fill:none;stroke:#d3d3d3;stroke-dasharray:2.22,0.96;stroke-dashoffset:0;stroke-width:0.6;"/>
     </g>
     <g id="line2d_8"/>
     <g id="text_4">
      <text style="font-family:Arial;font-size:9px;font-stretch:normal;font-style:normal;font-weight:normal;text-anchor:middle;" transform="rotate(-0, 391.196936, 346.964832)" x="391.196936" y="346.964832">3.0</text>
     </g>
    </g>
    <g id="xtick_5">
     <g id="line2d_9">
      <path clip-path="url(#p4355b843cd)" d="M 447.945117 337.022801 &#10;L 447.945117 21.214531 &#10;" style="fill:none;stroke:#d3d3d3;stroke-dasharray:2.22,0.96;stroke-dashoffset:0;stroke-width:0.6;"/>
     </g>
     <g id="line2d_10"/>
     <g id="text_5">
      <text style="font-family:Arial;font-size:9px;font-stretch:normal;font-style:normal;font-weight:normal;text-anchor:middle;" transform="rotate(-0, 447.945117, 346.964832)" x="447.945117" y="346.964832">3.1</text>
     </g>
    </g>
    <g id="xtick_6">
     <g id="line2d_11">
      <path clip-path="url(#p4355b843cd)" d="M 504.693298 337.022801 &#10;L 504.693298 21.214531 &#10;" style="fill:none;stroke:#d3d3d3;stroke-dasharray:2.22,0.96;stroke-dashoffset:0;stroke-width:0.6;"/>
     </g>
     <g id="line2d_12"/>
     <g id="text_6">
      <text style="font-family:Arial;font-size:9px;font-stretch:normal;font-style:normal;font-weight:normal;text-anchor:middle;" transform="rotate(-0, 504.693298, 346.964832)" x="504.693298" y="346.964832">3.2</text>
     </g>
    </g>
    <g id="text_7">
     <text style="font-family:Arial;font-size:9px;font-stretch:normal;font-style:normal;font-weight:normal;text-anchor:middle;" transform="rotate(-0, 357.148027, 359.305301)" x="357.148027" y="359.305301">Signal</text>
    </g>
   </g>
   <g id="matplotlib.axis_2">
    <g id="ytick_1">
     <g id="line2d_13"/>
     <g id="text_8">
      <text style="font-family:Arial;font-size:9px;font-stretch:normal;font-style:normal;font-weight:normal;text-anchor:end;" transform="rotate(-0, 163.267031, 53.14539)" x="163.267031" y="53.14539">Response to toxic substance</text>
     </g>
    </g>
    <g id="ytick_2">
     <g id="line2d_14"/>
     <g id="text_9">
      <text style="font-family:Arial;font-size:9px;font-stretch:normal;font-style:normal;font-weight:normal;" transform="translate(36.691875 77.741951)">Negative regulation of apoptotic</text>
      <text style="font-family:Arial;font-size:9px;font-stretch:normal;font-style:normal;font-weight:normal;" transform="translate(91.724062 87.366607)">signaling pathway</text>
     </g>
    </g>
    <g id="ytick_3">
     <g id="line2d_15"/>
     <g id="text_10">
      <text style="font-family:Arial;font-size:9px;font-stretch:normal;font-style:normal;font-weight:normal;" transform="translate(11.687344 106.451794)">Regulation of reactive oxygen species</text>
      <text style="font-family:Arial;font-size:9px;font-stretch:normal;font-style:normal;font-weight:normal;" transform="translate(90.739687 116.07645)">metabolic process</text>
     </g>
    </g>
    <g id="ytick_4">
     <g id="line2d_16"/>
     <g id="text_11">
      <text style="font-family:Arial;font-size:9px;font-stretch:normal;font-style:normal;font-weight:normal;text-anchor:end;" transform="rotate(-0, 163.267031, 139.274918)" x="163.267031" y="139.274918">Response to oxidative stress</text>
     </g>
    </g>
    <g id="ytick_5">
     <g id="line2d_17"/>
     <g id="text_12">
      <text style="font-family:Arial;font-size:9px;font-stretch:normal;font-style:normal;font-weight:normal;text-anchor:end;" transform="rotate(-0, 163.267031, 168.039604)" x="163.267031" y="168.039604">Cellular response to chemical stress</text>
     </g>
    </g>
    <g id="ytick_6">
     <g id="line2d_18"/>
     <g id="text_13">
      <text style="font-family:Arial;font-size:9px;font-stretch:normal;font-style:normal;font-weight:normal;text-anchor:end;" transform="rotate(-0, 163.267031, 196.749447)" x="163.267031" y="196.749447">Regulation of neuron death</text>
     </g>
    </g>
    <g id="ytick_7">
     <g id="line2d_19"/>
     <g id="text_14">
      <text style="font-family:Arial;font-size:9px;font-stretch:normal;font-style:normal;font-weight:normal;" transform="translate(7.2 221.291165)">Regulation of small molecule metabolic</text>
      <text style="font-family:Arial;font-size:9px;font-stretch:normal;font-style:normal;font-weight:normal;" transform="translate(131.755781 230.915821)">process</text>
     </g>
    </g>
    <g id="ytick_8">
     <g id="line2d_20"/>
     <g id="text_15">
      <text style="font-family:Arial;font-size:9px;font-stretch:normal;font-style:normal;font-weight:normal;" transform="translate(11.190937 250.001007)">Regulation of oxidative stress-induced</text>
      <text style="font-family:Arial;font-size:9px;font-stretch:normal;font-style:normal;font-weight:normal;" transform="translate(124.742812 259.625664)">cell death</text>
     </g>
    </g>
    <g id="ytick_9">
     <g id="line2d_21"/>
     <g id="text_16">
      <text style="font-family:Arial;font-size:9px;font-stretch:normal;font-style:normal;font-weight:normal;text-anchor:end;" transform="rotate(-0, 163.267031, 282.878975)" x="163.267031" y="282.878975">Positive regulation of neuron death</text>
     </g>
    </g>
    <g id="ytick_10">
     <g id="line2d_22"/>
     <g id="text_17">
      <text style="font-family:Arial;font-size:9px;font-stretch:normal;font-style:normal;font-weight:normal;" transform="translate(31.210312 307.365849)">Regulation of smooth muscle cell</text>
      <text style="font-family:Arial;font-size:9px;font-stretch:normal;font-style:normal;font-weight:normal;" transform="translate(116.244844 317.12213)">proliferation</text>
     </g>
    </g>
   </g>
   <g id="patch_3">
    <path clip-path="url(#p4355b843cd)" d="M 166.767031 294.532234 &#10;L 547.529022 294.532234 &#10;L 547.529022 320.371092 &#10;L 166.767031 320.371092 &#10;z&#10;" style="fill:#3b0f70;opacity:0.1;"/>
   </g>
   <g id="patch_4">
    <path clip-path="url(#p4355b843cd)" d="M 166.767031 265.822391 &#10;L 547.529022 265.822391 &#10;L 547.529022 291.66125 &#10;L 166.767031 291.66125 &#10;z&#10;" style="fill:#3b0f70;opacity:0.1;"/>
   </g>
   <g id="patch_5">
    <path clip-path="url(#p4355b843cd)" d="M 166.767031 237.112549 &#10;L 547.529022 237.112549 &#10;L 547.529022 262.951407 &#10;L 166.767031 262.951407 &#10;z&#10;" style="fill:#3b0f70;opacity:0.1;"/>
   </g>
   <g id="patch_6">
    <path clip-path="url(#p4355b843cd)" d="M 166.767031 208.402706 &#10;L 547.529022 208.402706 &#10;L 547.529022 234.241564 &#10;L 166.767031 234.241564 &#10;z&#10;" style="fill:#f4675c;opacity:0.1;"/>
   </g>
   <g id="patch_7">
    <path clip-path="url(#p4355b843cd)" d="M 166.767031 179.692863 &#10;L 547.529022 179.692863 &#10;L 547.529022 205.531722 &#10;L 166.767031 205.531722 &#10;z&#10;" style="fill:#f4675c;opacity:0.1;"/>
   </g>
   <g id="patch_8">
    <path clip-path="url(#p4355b843cd)" d="M 166.767031 122.273178 &#10;L 547.529022 122.273178 &#10;L 547.529022 176.821879 &#10;L 166.767031 176.821879 &#10;z&#10;" style="fill:#fe9f6d;opacity:0.1;"/>
   </g>
   <g id="patch_9">
    <path clip-path="url(#p4355b843cd)" d="M 166.767031 93.563335 &#10;L 547.529022 93.563335 &#10;L 547.529022 119.402193 &#10;L 166.767031 119.402193 &#10;z&#10;" style="fill:#9c2e7f;opacity:0.1;"/>
   </g>
   <g id="patch_10">
    <path clip-path="url(#p4355b843cd)" d="M 166.767031 64.853492 &#10;L 547.529022 64.853492 &#10;L 547.529022 90.692351 &#10;L 166.767031 90.692351 &#10;z&#10;" style="fill:#f4675c;opacity:0.1;"/>
   </g>
   <g id="patch_11">
    <path clip-path="url(#p4355b843cd)" d="M 166.767031 36.143649 &#10;L 547.529022 36.143649 &#10;L 547.529022 61.982508 &#10;L 166.767031 61.982508 &#10;z&#10;" style="fill:#f4675c;opacity:0.1;"/>
   </g>
   <g id="horizontalLine_Process:GO.0009636">
    <path data-original-stroke="grey" clip-path="url(#p4355b843cd)" d="M 166.767031 49.924374 &#10;L 527.392571 49.924374 &#10;" style="fill:none;stroke:#f4675c;stroke-linecap:square;stroke-width:3;"/>
   </g>
   <g id="horizontalLine_Process:GO.2001234">
    <path data-original-stroke="grey" clip-path="url(#p4355b843cd)" d="M 166.767031 78.634217 &#10;L 521.717753 78.634217 &#10;" style="fill:none;stroke:#f4675c;stroke-linecap:square;stroke-width:3;"/>
   </g>
   <g id="horizontalLine_Process:GO.2000377">
    <path data-original-stroke="grey" clip-path="url(#p4355b843cd)" d="M 166.767031 107.344059 &#10;L 453.619935 107.344059 &#10;" style="fill:none;stroke:#9c2e7f;stroke-linecap:square;stroke-width:3;"/>
   </g>
   <g id="horizontalLine_Process:GO.0006979">
    <path data-original-stroke="grey" clip-path="url(#p4355b843cd)" d="M 166.767031 136.053902 &#10;L 402.546572 136.053902 &#10;" style="fill:none;stroke:#fe9f6d;stroke-linecap:square;stroke-width:3;"/>
   </g>
   <g id="horizontalLine_Process:GO.0062197">
    <path data-original-stroke="grey" clip-path="url(#p4355b843cd)" d="M 166.767031 164.763745 &#10;L 226.62721 164.763745 &#10;" style="fill:none;stroke:#9c2e7f;stroke-linecap:square;stroke-width:3;"/>
   </g>
   <g id="horizontalLine_Process:GO.1901214">
    <path data-original-stroke="grey" clip-path="url(#p4355b843cd)" d="M 166.767031 193.473588 &#10;L 396.871754 193.473588 &#10;" style="fill:none;stroke:#f4675c;stroke-linecap:square;stroke-width:3;"/>
   </g>
   <g id="horizontalLine_Process:GO.0062012">
    <path data-original-stroke="grey" clip-path="url(#p4355b843cd)" d="M 166.767031 222.18343 &#10;L 374.172481 222.18343 &#10;" style="fill:none;stroke:#f4675c;stroke-linecap:square;stroke-width:3;"/>
   </g>
   <g id="horizontalLine_Process:GO.1903201">
    <path data-original-stroke="grey" clip-path="url(#p4355b843cd)" d="M 166.767031 250.893273 &#10;L 289.050209 250.893273 &#10;" style="fill:none;stroke:#3b0f70;stroke-linecap:square;stroke-width:3;"/>
   </g>
   <g id="horizontalLine_Process:GO.1901216">
    <path data-original-stroke="grey" clip-path="url(#p4355b843cd)" d="M 166.767031 279.603116 &#10;L 272.025755 279.603116 &#10;" style="fill:none;stroke:#3b0f70;stroke-linecap:square;stroke-width:3;"/>
   </g>
   <g id="horizontalLine_Process:GO.0048660">
    <path data-original-stroke="grey" clip-path="url(#p4355b843cd)" d="M 166.767031 308.312959 &#10;L 186.903483 308.312959 &#10;" style="fill:none;stroke:#3b0f70;stroke-linecap:square;stroke-width:3;"/>
   </g>
   <g id="line2d_23">
    <path clip-path="url(#p4355b843cd)" d="M 166.767031 49.924374 &#10;L 527.392571 49.924374 &#10;" style="fill:none;stroke:#ffffff;stroke-linecap:square;stroke-opacity:0.4;stroke-width:3;"/>
   </g>
   <g id="line2d_24">
    <path clip-path="url(#p4355b843cd)" d="M 166.767031 78.634217 &#10;L 521.717753 78.634217 &#10;" style="fill:none;stroke:#ffffff;stroke-linecap:square;stroke-opacity:0.4;stroke-width:3;"/>
   </g>
   <g id="line2d_25">
    <path clip-path="url(#p4355b843cd)" d="M 166.767031 107.344059 &#10;L 453.619935 107.344059 &#10;" style="fill:none;stroke:#ffffff;stroke-linecap:square;stroke-opacity:0.4;stroke-width:3;"/>
   </g>
   <g id="line2d_26">
    <path clip-path="url(#p4355b843cd)" d="M 166.767031 136.053902 &#10;L 402.546572 136.053902 &#10;" style="fill:none;stroke:#ffffff;stroke-linecap:square;stroke-opacity:0.4;stroke-width:3;"/>
   </g>
   <g id="line2d_27">
    <path clip-path="url(#p4355b843cd)" d="M 166.767031 164.763745 &#10;L 226.62721 164.763745 &#10;" style="fill:none;stroke:#ffffff;stroke-linecap:square;stroke-opacity:0.4;stroke-width:3;"/>
   </g>
   <g id="line2d_28">
    <path clip-path="url(#p4355b843cd)" d="M 166.767031 193.473588 &#10;L 396.871754 193.473588 &#10;" style="fill:none;stroke:#ffffff;stroke-linecap:square;stroke-opacity:0.4;stroke-width:3;"/>
   </g>
   <g id="line2d_29">
    <path clip-path="url(#p4355b843cd)" d="M 166.767031 222.18343 &#10;L 374.172481 222.18343 &#10;" style="fill:none;stroke:#ffffff;stroke-linecap:square;stroke-opacity:0.4;stroke-width:3;"/>
   </g>
   <g id="line2d_30">
    <path clip-path="url(#p4355b843cd)" d="M 166.767031 250.893273 &#10;L 289.050209 250.893273 &#10;" style="fill:none;stroke:#ffffff;stroke-linecap:square;stroke-opacity:0.4;stroke-width:3;"/>
   </g>
   <g id="line2d_31">
    <path clip-path="url(#p4355b843cd)" d="M 166.767031 279.603116 &#10;L 272.025755 279.603116 &#10;" style="fill:none;stroke:#ffffff;stroke-linecap:square;stroke-opacity:0.4;stroke-width:3;"/>
   </g>
   <g id="line2d_32">
    <path clip-path="url(#p4355b843cd)" d="M 166.767031 308.312959 &#10;L 186.903483 308.312959 &#10;" style="fill:none;stroke:#ffffff;stroke-linecap:square;stroke-opacity:0.4;stroke-width:3;"/>
   </g>
   <g id="dots_plot">
    <path id="circle_Process:GO.0009636" data-original-stroke="grey" clip-path="url(#p4355b843cd)" d="M 527.392571 60.725608 &#10;C 530.257092 60.725608 533.004675 59.587522 535.030197 57.562 &#10;C 537.055719 55.536478 538.193805 52.788895 538.193805 49.924374 &#10;C 538.193805 47.059853 537.055719 44.31227 535.030197 42.286748 &#10;C 533.004675 40.261226 530.257092 39.123139 527.392571 39.123139 &#10;C 524.52805 39.123139 521.780467 40.261226 519.754945 42.286748 &#10;C 517.729423 44.31227 516.591336 47.059853 516.591336 49.924374 &#10;C 516.591336 52.788895 517.729423 55.536478 519.754945 57.562 &#10;C 521.780467 59.587522 524.52805 60.725608 527.392571 60.725608 &#10;z&#10;" style="fill:#f4675c;stroke:#f4675c;stroke-width:2.2;"/>
    <path id="circle_Process:GO.2001234" data-original-stroke="grey" clip-path="url(#p4355b843cd)" d="M 521.717753 89.435451 &#10;C 524.582274 89.435451 527.329857 88.297365 529.355379 86.271843 &#10;C 531.380901 84.246321 532.518987 81.498738 532.518987 78.634217 &#10;C 532.518987 75.769696 531.380901 73.022113 529.355379 70.996591 &#10;C 527.329857 68.971068 524.582274 67.832982 521.717753 67.832982 &#10;C 518.853232 67.832982 516.105649 68.971068 514.080127 70.996591 &#10;C 512.054604 73.022113 510.916518 75.769696 510.916518 78.634217 &#10;C 510.916518 81.498738 512.054604 84.246321 514.080127 86.271843 &#10;C 516.105649 88.297365 518.853232 89.435451 521.717753 89.435451 &#10;z&#10;" style="fill:#f4675c;stroke:#f4675c;stroke-width:2.2;"/>
    <path id="circle_Process:GO.2000377" data-original-stroke="grey" clip-path="url(#p4355b843cd)" d="M 453.619935 116.472769 &#10;C 456.040897 116.472769 458.363029 115.51091 460.074907 113.799032 &#10;C 461.786786 112.087153 462.748644 109.765021 462.748644 107.344059 &#10;C 462.748644 104.923097 461.786786 102.600966 460.074907 100.889087 &#10;C 458.363029 99.177209 456.040897 98.21535 453.619935 98.21535 &#10;C 451.198973 98.21535 448.876841 99.177209 447.164963 100.889087 &#10;C 445.453084 102.600966 444.491226 104.923097 444.491226 107.344059 &#10;C 444.491226 109.765021 445.453084 112.087153 447.164963 113.799032 &#10;C 448.876841 115.51091 451.198973 116.472769 453.619935 116.472769 &#10;z&#10;" style="fill:#9c2e7f;stroke:#9c2e7f;stroke-width:2.2;"/>
    <path id="circle_Process:GO.0006979" data-original-stroke="grey" clip-path="url(#p4355b843cd)" d="M 402.546572 148.301351 &#10;C 405.794633 148.301351 408.9101 147.010882 411.206826 144.714156 &#10;C 413.503552 142.41743 414.794021 139.301964 414.794021 136.053902 &#10;C 414.794021 132.805841 413.503552 129.690374 411.206826 127.393648 &#10;C 408.9101 125.096922 405.794633 123.806453 402.546572 123.806453 &#10;C 399.29851 123.806453 396.183044 125.096922 393.886318 127.393648 &#10;C 391.589592 129.690374 390.299123 132.805841 390.299123 136.053902 &#10;C 390.299123 139.301964 391.589592 142.41743 393.886318 144.714156 &#10;C 396.183044 147.010882 399.29851 148.301351 402.546572 148.301351 &#10;z&#10;" style="fill:#fe9f6d;stroke:#fe9f6d;stroke-width:2.2;"/>
    <path id="circle_Process:GO.0062197" data-original-stroke="grey" clip-path="url(#p4355b843cd)" d="M 226.62721 175.251833 &#10;C 229.408683 175.251833 232.076609 174.146742 234.043408 172.179943 &#10;C 236.010207 170.213145 237.115298 167.545218 237.115298 164.763745 &#10;C 237.115298 161.982271 236.010207 159.314345 234.043408 157.347546 &#10;C 232.076609 155.380748 229.408683 154.275656 226.62721 154.275656 &#10;C 223.845736 154.275656 221.17781 155.380748 219.211011 157.347546 &#10;C 217.244212 159.314345 216.139121 161.982271 216.139121 164.763745 &#10;C 216.139121 167.545218 217.244212 170.213145 219.211011 172.179943 &#10;C 221.17781 174.146742 223.845736 175.251833 226.62721 175.251833 &#10;z&#10;" style="fill:#9c2e7f;stroke:#9c2e7f;stroke-width:2.2;"/>
    <path id="circle_Process:GO.1901214" data-original-stroke="grey" clip-path="url(#p4355b843cd)" d="M 396.871754 205.16404 &#10;C 399.972098 205.16404 402.945877 203.93226 405.138152 201.739985 &#10;C 407.330426 199.547711 408.562206 196.573932 408.562206 193.473588 &#10;C 408.562206 190.373244 407.330426 187.399464 405.138152 185.20719 &#10;C 402.945877 183.014915 399.972098 181.783136 396.871754 181.783136 &#10;C 393.77141 181.783136 390.79763 183.014915 388.605356 185.20719 &#10;C 386.413082 187.399464 385.181302 190.373244 385.181302 193.473588 &#10;C 385.181302 196.573932 386.413082 199.547711 388.605356 201.739985 &#10;C 390.79763 203.93226 393.77141 205.16404 396.871754 205.16404 &#10;z&#10;" style="fill:#f4675c;stroke:#f4675c;stroke-width:2.2;"/>
    <path id="circle_Process:GO.0062012" data-original-stroke="grey" clip-path="url(#p4355b843cd)" d="M 374.172481 233.873882 &#10;C 377.272825 233.873882 380.246605 232.642103 382.438879 230.449828 &#10;C 384.631153 228.257554 385.862933 225.283774 385.862933 222.18343 &#10;C 385.862933 219.083086 384.631153 216.109307 382.438879 213.917032 &#10;C 380.246605 211.724758 377.272825 210.492978 374.172481 210.492978 &#10;C 371.072137 210.492978 368.098358 211.724758 365.906083 213.917032 &#10;C 363.713809 216.109307 362.482029 219.083086 362.482029 222.18343 &#10;C 362.482029 225.283774 363.713809 228.257554 365.906083 230.449828 &#10;C 368.098358 232.642103 371.072137 233.873882 374.172481 233.873882 &#10;z&#10;" style="fill:#f4675c;stroke:#f4675c;stroke-width:2.2;"/>
    <path id="circle_Process:GO.1903201" data-original-stroke="grey" clip-path="url(#p4355b843cd)" d="M 289.050209 257.964341 &#10;C 290.925478 257.964341 292.724194 257.219289 294.050209 255.893273 &#10;C 295.376225 254.567258 296.121277 252.768542 296.121277 250.893273 &#10;C 296.121277 249.018004 295.376225 247.219289 294.050209 245.893273 &#10;C 292.724194 244.567258 290.925478 243.822205 289.050209 243.822205 &#10;C 287.17494 243.822205 285.376225 244.567258 284.050209 245.893273 &#10;C 282.724194 247.219289 281.979141 249.018004 281.979141 250.893273 &#10;C 281.979141 252.768542 282.724194 254.567258 284.050209 255.893273 &#10;C 285.376225 257.219289 287.17494 257.964341 289.050209 257.964341 &#10;z&#10;" style="fill:#3b0f70;stroke:#3b0f70;stroke-width:2.2;"/>
    <path id="circle_Process:GO.1901216" data-original-stroke="grey" clip-path="url(#p4355b843cd)" d="M 272.025755 287.130842 &#10;C 274.022131 287.130842 275.93701 286.337674 277.348661 284.926022 &#10;C 278.760312 283.514371 279.553481 281.599492 279.553481 279.603116 &#10;C 279.553481 277.606739 278.760312 275.691861 277.348661 274.280209 &#10;C 275.93701 272.868558 274.022131 272.075389 272.025755 272.075389 &#10;C 270.029378 272.075389 268.1145 272.868558 266.702848 274.280209 &#10;C 265.291197 275.691861 264.498028 277.606739 264.498028 279.603116 &#10;C 264.498028 281.599492 265.291197 283.514371 266.702848 284.926022 &#10;C 268.1145 286.337674 270.029378 287.130842 272.025755 287.130842 &#10;z&#10;" style="fill:#3b0f70;stroke:#3b0f70;stroke-width:2.2;"/>
    <path id="circle_Process:GO.0048660" data-original-stroke="grey" clip-path="url(#p4355b843cd)" d="M 186.903483 316.679559 &#10;C 189.122331 316.679559 191.2506 315.798001 192.819562 314.229038 &#10;C 194.388525 312.660076 195.270083 310.531807 195.270083 308.312959 &#10;C 195.270083 306.09411 194.388525 303.965841 192.819562 302.396879 &#10;C 191.2506 300.827916 189.122331 299.946358 186.903483 299.946358 &#10;C 184.684634 299.946358 182.556366 300.827916 180.987403 302.396879 &#10;C 179.41844 303.965841 178.536882 306.09411 178.536882 308.312959 &#10;C 178.536882 310.531807 179.41844 312.660076 180.987403 314.229038 &#10;C 182.556366 315.798001 184.684634 316.679559 186.903483 316.679559 &#10;z&#10;" style="fill:#3b0f70;stroke:#3b0f70;stroke-width:2.2;"/>
   </g>
   <g id="PathCollection_1">
    <path clip-path="url(#p4355b843cd)" d="M 527.392571 60.725608 &#10;C 530.257092 60.725608 533.004675 59.587522 535.030197 57.562 &#10;C 537.055719 55.536478 538.193805 52.788895 538.193805 49.924374 &#10;C 538.193805 47.059853 537.055719 44.31227 535.030197 42.286748 &#10;C 533.004675 40.261226 530.257092 39.123139 527.392571 39.123139 &#10;C 524.52805 39.123139 521.780467 40.261226 519.754945 42.286748 &#10;C 517.729423 44.31227 516.591336 47.059853 516.591336 49.924374 &#10;C 516.591336 52.788895 517.729423 55.536478 519.754945 57.562 &#10;C 521.780467 59.587522 524.52805 60.725608 527.392571 60.725608 &#10;z&#10;" style="fill:none;stroke:#808080;stroke-opacity:0.45;stroke-width:2.2;"/>
    <path clip-path="url(#p4355b843cd)" d="M 521.717753 89.435451 &#10;C 524.582274 89.435451 527.329857 88.297365 529.355379 86.271843 &#10;C 531.380901 84.246321 532.518987 81.498738 532.518987 78.634217 &#10;C 532.518987 75.769696 531.380901 73.022113 529.355379 70.996591 &#10;C 527.329857 68.971068 524.582274 67.832982 521.717753 67.832982 &#10;C 518.853232 67.832982 516.105649 68.971068 514.080127 70.996591 &#10;C 512.054604 73.022113 510.916518 75.769696 510.916518 78.634217 &#10;C 510.916518 81.498738 512.054604 84.246321 514.080127 86.271843 &#10;C 516.105649 88.297365 518.853232 89.435451 521.717753 89.435451 &#10;z&#10;" style="fill:none;stroke:#808080;stroke-opacity:0.45;stroke-width:2.2;"/>
    <path clip-path="url(#p4355b843cd)" d="M 453.619935 116.472769 &#10;C 456.040897 116.472769 458.363029 115.51091 460.074907 113.799032 &#10;C 461.786786 112.087153 462.748644 109.765021 462.748644 107.344059 &#10;C 462.748644 104.923097 461.786786 102.600966 460.074907 100.889087 &#10;C 458.363029 99.177209 456.040897 98.21535 453.619935 98.21535 &#10;C 451.198973 98.21535 448.876841 99.177209 447.164963 100.889087 &#10;C 445.453084 102.600966 444.491226 104.923097 444.491226 107.344059 &#10;C 444.491226 109.765021 445.453084 112.087153 447.164963 113.799032 &#10;C 448.876841 115.51091 451.198973 116.472769 453.619935 116.472769 &#10;z&#10;" style="fill:none;stroke:#808080;stroke-opacity:0.45;stroke-width:2.2;"/>
    <path clip-path="url(#p4355b843cd)" d="M 402.546572 148.301351 &#10;C 405.794633 148.301351 408.9101 147.010882 411.206826 144.714156 &#10;C 413.503552 142.41743 414.794021 139.301964 414.794021 136.053902 &#10;C 414.794021 132.805841 413.503552 129.690374 411.206826 127.393648 &#10;C 408.9101 125.096922 405.794633 123.806453 402.546572 123.806453 &#10;C 399.29851 123.806453 396.183044 125.096922 393.886318 127.393648 &#10;C 391.589592 129.690374 390.299123 132.805841 390.299123 136.053902 &#10;C 390.299123 139.301964 391.589592 142.41743 393.886318 144.714156 &#10;C 396.183044 147.010882 399.29851 148.301351 402.546572 148.301351 &#10;z&#10;" style="fill:none;stroke:#808080;stroke-opacity:0.45;stroke-width:2.2;"/>
    <path clip-path="url(#p4355b843cd)" d="M 226.62721 175.251833 &#10;C 229.408683 175.251833 232.076609 174.146742 234.043408 172.179943 &#10;C 236.010207 170.213145 237.115298 167.545218 237.115298 164.763745 &#10;C 237.115298 161.982271 236.010207 159.314345 234.043408 157.347546 &#10;C 232.076609 155.380748 229.408683 154.275656 226.62721 154.275656 &#10;C 223.845736 154.275656 221.17781 155.380748 219.211011 157.347546 &#10;C 217.244212 159.314345 216.139121 161.982271 216.139121 164.763745 &#10;C 216.139121 167.545218 217.244212 170.213145 219.211011 172.179943 &#10;C 221.17781 174.146742 223.845736 175.251833 226.62721 175.251833 &#10;z&#10;" style="fill:none;stroke:#808080;stroke-opacity:0.45;stroke-width:2.2;"/>
    <path clip-path="url(#p4355b843cd)" d="M 396.871754 205.16404 &#10;C 399.972098 205.16404 402.945877 203.93226 405.138152 201.739985 &#10;C 407.330426 199.547711 408.562206 196.573932 408.562206 193.473588 &#10;C 408.562206 190.373244 407.330426 187.399464 405.138152 185.20719 &#10;C 402.945877 183.014915 399.972098 181.783136 396.871754 181.783136 &#10;C 393.77141 181.783136 390.79763 183.014915 388.605356 185.20719 &#10;C 386.413082 187.399464 385.181302 190.373244 385.181302 193.473588 &#10;C 385.181302 196.573932 386.413082 199.547711 388.605356 201.739985 &#10;C 390.79763 203.93226 393.77141 205.16404 396.871754 205.16404 &#10;z&#10;" style="fill:none;stroke:#808080;stroke-opacity:0.45;stroke-width:2.2;"/>
    <path clip-path="url(#p4355b843cd)" d="M 374.172481 233.873882 &#10;C 377.272825 233.873882 380.246605 232.642103 382.438879 230.449828 &#10;C 384.631153 228.257554 385.862933 225.283774 385.862933 222.18343 &#10;C 385.862933 219.083086 384.631153 216.109307 382.438879 213.917032 &#10;C 380.246605 211.724758 377.272825 210.492978 374.172481 210.492978 &#10;C 371.072137 210.492978 368.098358 211.724758 365.906083 213.917032 &#10;C 363.713809 216.109307 362.482029 219.083086 362.482029 222.18343 &#10;C 362.482029 225.283774 363.713809 228.257554 365.906083 230.449828 &#10;C 368.098358 232.642103 371.072137 233.873882 374.172481 233.873882 &#10;z&#10;" style="fill:none;stroke:#808080;stroke-opacity:0.45;stroke-width:2.2;"/>
    <path clip-path="url(#p4355b843cd)" d="M 289.050209 257.964341 &#10;C 290.925478 257.964341 292.724194 257.219289 294.050209 255.893273 &#10;C 295.376225 254.567258 296.121277 252.768542 296.121277 250.893273 &#10;C 296.121277 249.018004 295.376225 247.219289 294.050209 245.893273 &#10;C 292.724194 244.567258 290.925478 243.822205 289.050209 243.822205 &#10;C 287.17494 243.822205 285.376225 244.567258 284.050209 245.893273 &#10;C 282.724194 247.219289 281.979141 249.018004 281.979141 250.893273 &#10;C 281.979141 252.768542 282.724194 254.567258 284.050209 255.893273 &#10;C 285.376225 257.219289 287.17494 257.964341 289.050209 257.964341 &#10;z&#10;" style="fill:none;stroke:#808080;stroke-opacity:0.45;stroke-width:2.2;"/>
    <path clip-path="url(#p4355b843cd)" d="M 272.025755 287.130842 &#10;C 274.022131 287.130842 275.93701 286.337674 277.348661 284.926022 &#10;C 278.760312 283.514371 279.553481 281.599492 279.553481 279.603116 &#10;C 279.553481 277.606739 278.760312 275.691861 277.348661 274.280209 &#10;C 275.93701 272.868558 274.022131 272.075389 272.025755 272.075389 &#10;C 270.029378 272.075389 268.1145 272.868558 266.702848 274.280209 &#10;C 265.291197 275.691861 264.498028 277.606739 264.498028 279.603116 &#10;C 264.498028 281.599492 265.291197 283.514371 266.702848 284.926022 &#10;C 268.1145 286.337674 270.029378 287.130842 272.025755 287.130842 &#10;z&#10;" style="fill:none;stroke:#808080;stroke-opacity:0.45;stroke-width:2.2;"/>
    <path clip-path="url(#p4355b843cd)" d="M 186.903483 316.679559 &#10;C 189.122331 316.679559 191.2506 315.798001 192.819562 314.229038 &#10;C 194.388525 312.660076 195.270083 310.531807 195.270083 308.312959 &#10;C 195.270083 306.09411 194.388525 303.965841 192.819562 302.396879 &#10;C 191.2506 300.827916 189.122331 299.946358 186.903483 299.946358 &#10;C 184.684634 299.946358 182.556366 300.827916 180.987403 302.396879 &#10;C 179.41844 303.965841 178.536882 306.09411 178.536882 308.312959 &#10;C 178.536882 310.531807 179.41844 312.660076 180.987403 314.229038 &#10;C 182.556366 315.798001 184.684634 316.679559 186.903483 316.679559 &#10;z&#10;" style="fill:none;stroke:#808080;stroke-opacity:0.45;stroke-width:2.2;"/>
   </g>
   <g id="text_18">
    <text style="font-family:Arial;font-size:11px;font-stretch:normal;font-style:normal;font-weight:normal;text-anchor:middle;" transform="rotate(-0, 357.148027, 15.214531)" x="357.148027" y="15.214531">Biological Process (Gene Ontology) enrichment</text>
   </g>
   <g id="line2d_33">
    <path clip-path="url(#p4355b843cd)" d="M 527.392571 41.081742 &#10;L 527.392571 58.767006 &#10;" style="fill:none;stroke:#808080;stroke-dasharray:1.85,0.8;stroke-dashoffset:0;stroke-width:0.5;"/>
   </g>
   <g id="line2d_34">
    <path clip-path="url(#p4355b843cd)" d="M 521.717753 69.791585 &#10;L 521.717753 87.476848 &#10;" style="fill:none;stroke:#808080;stroke-dasharray:1.85,0.8;stroke-dashoffset:0;stroke-width:0.5;"/>
   </g>
   <g id="line2d_35">
    <path clip-path="url(#p4355b843cd)" d="M 453.619935 101.027894 &#10;L 453.619935 113.660225 &#10;" style="fill:none;stroke:#808080;stroke-dasharray:1.85,0.8;stroke-dashoffset:0;stroke-width:0.5;"/>
   </g>
   <g id="line2d_36">
    <path clip-path="url(#p4355b843cd)" d="M 402.546572 124.684804 &#10;L 402.546572 147.423 &#10;" style="fill:none;stroke:#808080;stroke-dasharray:1.85,0.8;stroke-dashoffset:0;stroke-width:0.5;"/>
   </g>
   <g id="line2d_37">
    <path clip-path="url(#p4355b843cd)" d="M 226.62721 156.426407 &#10;L 226.62721 173.101083 &#10;" style="fill:none;stroke:#808080;stroke-dasharray:1.85,0.8;stroke-dashoffset:0;stroke-width:0.5;"/>
   </g>
   <g id="line2d_38">
    <path clip-path="url(#p4355b843cd)" d="M 396.871754 183.115076 &#10;L 396.871754 203.832099 &#10;" style="fill:none;stroke:#808080;stroke-dasharray:1.85,0.8;stroke-dashoffset:0;stroke-width:0.5;"/>
   </g>
   <g id="line2d_39">
    <path clip-path="url(#p4355b843cd)" d="M 374.172481 211.824919 &#10;L 374.172481 232.541942 &#10;" style="fill:none;stroke:#808080;stroke-dasharray:1.85,0.8;stroke-dashoffset:0;stroke-width:0.5;"/>
   </g>
   <g id="line2d_40">
    <path clip-path="url(#p4355b843cd)" d="M 289.050209 247.103574 &#10;L 289.050209 254.682972 &#10;" style="fill:none;stroke:#808080;stroke-dasharray:1.85,0.8;stroke-dashoffset:0;stroke-width:0.5;"/>
   </g>
   <g id="line2d_41">
    <path clip-path="url(#p4355b843cd)" d="M 272.025755 275.308123 &#10;L 272.025755 283.898108 &#10;" style="fill:none;stroke:#808080;stroke-dasharray:1.85,0.8;stroke-dashoffset:0;stroke-width:0.5;"/>
   </g>
   <g id="line2d_42">
    <path clip-path="url(#p4355b843cd)" d="M 186.903483 303.00738 &#10;L 186.903483 313.618537 &#10;" style="fill:none;stroke:#808080;stroke-dasharray:1.85,0.8;stroke-dashoffset:0;stroke-width:0.5;"/>
   </g>
   <g id="invisibleRectangle_Process:GO.0048660" style="cursor: pointer;">
    <path clip-path="url(#p4355b843cd)" d="M 166.767031 294.532234 &#10;L 547.529022 294.532234 &#10;L 547.529022 320.371092 &#10;L 166.767031 320.371092 &#10;z&#10;" style="fill:#ffffff;opacity:0.01;"/>
   </g>
   <g id="invisibleRectangle_Process:GO.1901216" style="cursor: pointer;">
    <path clip-path="url(#p4355b843cd)" d="M 166.767031 265.822391 &#10;L 547.529022 265.822391 &#10;L 547.529022 291.66125 &#10;L 166.767031 291.66125 &#10;z&#10;" style="fill:#ffffff;opacity:0.01;"/>
   </g>
   <g id="invisibleRectangle_Process:GO.1903201" style="cursor: pointer;">
    <path clip-path="url(#p4355b843cd)" d="M 166.767031 237.112549 &#10;L 547.529022 237.112549 &#10;L 547.529022 262.951407 &#10;L 166.767031 262.951407 &#10;z&#10;" style="fill:#ffffff;opacity:0.01;"/>
   </g>
   <g id="invisibleRectangle_Process:GO.0062012" style="cursor: pointer;">
    <path clip-path="url(#p4355b843cd)" d="M 166.767031 208.402706 &#10;L 547.529022 208.402706 &#10;L 547.529022 234.241564 &#10;L 166.767031 234.241564 &#10;z&#10;" style="fill:#ffffff;opacity:0.01;"/>
   </g>
   <g id="invisibleRectangle_Process:GO.1901214" style="cursor: pointer;">
    <path clip-path="url(#p4355b843cd)" d="M 166.767031 179.692863 &#10;L 547.529022 179.692863 &#10;L 547.529022 205.531722 &#10;L 166.767031 205.531722 &#10;z&#10;" style="fill:#ffffff;opacity:0.01;"/>
   </g>
   <g id="invisibleRectangle_Process:GO.0062197" style="cursor: pointer;">
    <path clip-path="url(#p4355b843cd)" d="M 166.767031 150.98302 &#10;L 547.529022 150.98302 &#10;L 547.529022 176.821879 &#10;L 166.767031 176.821879 &#10;z&#10;" style="fill:#ffffff;opacity:0.01;"/>
   </g>
   <g id="invisibleRectangle_Process:GO.0006979" style="cursor: pointer;">
    <path clip-path="url(#p4355b843cd)" d="M 166.767031 122.273178 &#10;L 547.529022 122.273178 &#10;L 547.529022 148.112036 &#10;L 166.767031 148.112036 &#10;z&#10;" style="fill:#ffffff;opacity:0.01;"/>
   </g>
   <g id="invisibleRectangle_Process:GO.2000377" style="cursor: pointer;">
    <path clip-path="url(#p4355b843cd)" d="M 166.767031 93.563335 &#10;L 547.529022 93.563335 &#10;L 547.529022 119.402193 &#10;L 166.767031 119.402193 &#10;z&#10;" style="fill:#ffffff;opacity:0.01;"/>
   </g>
   <g id="invisibleRectangle_Process:GO.2001234" style="cursor: pointer;">
    <path clip-path="url(#p4355b843cd)" d="M 166.767031 64.853492 &#10;L 547.529022 64.853492 &#10;L 547.529022 90.692351 &#10;L 166.767031 90.692351 &#10;z&#10;" style="fill:#ffffff;opacity:0.01;"/>
   </g>
   <g id="invisibleRectangle_Process:GO.0009636" style="cursor: pointer;">
    <path clip-path="url(#p4355b843cd)" d="M 166.767031 36.143649 &#10;L 547.529022 36.143649 &#10;L 547.529022 61.982508 &#10;L 166.767031 61.982508 &#10;z&#10;" style="fill:#ffffff;opacity:0.01;"/>
   </g>
  </g>
  <g id="axes_2">
   <g id="patch_12">
    <path d="M 554.009022 337.022801 &#10;L 649.19952 337.022801 &#10;L 649.19952 21.214531 &#10;L 554.009022 21.214531 &#10;z&#10;" style="fill:none;"/>
   </g>
   <g id="patch_13">
    <path clip-path="url(#p585043d0bb)" d="M 554.009022 320.514642 &#10;L 565.907834 320.514642 &#10;L 565.907834 294.388685 &#10;L 554.009022 294.388685 &#10;z&#10;" style="fill:#3b0f70;"/>
   </g>
   <g id="patch_14">
    <path clip-path="url(#p585043d0bb)" d="M 554.009022 291.804799 &#10;L 565.907834 291.804799 &#10;L 565.907834 265.678842 &#10;L 554.009022 265.678842 &#10;z&#10;" style="fill:#3b0f70;"/>
   </g>
   <g id="patch_15">
    <path clip-path="url(#p585043d0bb)" d="M 554.009022 263.094956 &#10;L 565.907834 263.094956 &#10;L 565.907834 236.968999 &#10;L 554.009022 236.968999 &#10;z&#10;" style="fill:#3b0f70;"/>
   </g>
   <g id="patch_16">
    <path clip-path="url(#p585043d0bb)" d="M 554.009022 234.385113 &#10;L 565.907834 234.385113 &#10;L 565.907834 208.259157 &#10;L 554.009022 208.259157 &#10;z&#10;" style="fill:#f4675c;"/>
   </g>
   <g id="patch_17">
    <path clip-path="url(#p585043d0bb)" d="M 554.009022 205.675271 &#10;L 565.907834 205.675271 &#10;L 565.907834 179.549314 &#10;L 554.009022 179.549314 &#10;z&#10;" style="fill:#f4675c;"/>
   </g>
   <g id="patch_18">
    <path clip-path="url(#p585043d0bb)" d="M 554.009022 176.965428 &#10;L 565.907834 176.965428 &#10;L 565.907834 122.129628 &#10;L 554.009022 122.129628 &#10;z&#10;" style="fill:#fe9f6d;"/>
   </g>
   <g id="patch_19">
    <path clip-path="url(#p585043d0bb)" d="M 554.009022 119.545743 &#10;L 565.907834 119.545743 &#10;L 565.907834 93.419786 &#10;L 554.009022 93.419786 &#10;z&#10;" style="fill:#9c2e7f;"/>
   </g>
   <g id="patch_20">
    <path clip-path="url(#p585043d0bb)" d="M 554.009022 90.8359 &#10;L 565.907834 90.8359 &#10;L 565.907834 64.709943 &#10;L 554.009022 64.709943 &#10;z&#10;" style="fill:#f4675c;"/>
   </g>
   <g id="patch_21">
    <path clip-path="url(#p585043d0bb)" d="M 554.009022 62.126057 &#10;L 565.907834 62.126057 &#10;L 565.907834 36.0001 &#10;L 554.009022 36.0001 &#10;z&#10;" style="fill:#f4675c;"/>
   </g>
   <g id="matplotlib.axis_3"/>
   <g id="matplotlib.axis_4"/>
   <g id="text_19">
    <text style="font-family:Arial;font-size:9px;font-stretch:normal;font-style:normal;font-weight:normal;" transform="translate(580.135397 222.384125)rotate(-90)">Groups at similarity 0.7</text>
   </g>
  </g>
  <g id="axes_3">
   <g id="patch_22">
    <path d="M 587.39976 130.19976 &#10;L 652.19976 130.19976 &#10;L 652.19976 22.19976 &#10;L 587.39976 22.19976 &#10;z&#10;" style="fill:none;"/>
   </g>
   <g id="PathCollection_2">
    <defs>
     <path d="M -70.710678 70.710678 &#10;L 70.710678 70.710678 &#10;L 70.710678 -70.710678 &#10;L -70.710678 -70.710678 &#10;z&#10;" id="ma9d095a413" style="stroke:#ffffff;stroke-opacity:0.6;"/>
    </defs>
    <g clip-path="url(#pe3c0a7e500)">
     <use style="fill:#ffffff;fill-opacity:0.6;stroke:#ffffff;stroke-opacity:0.6;" x="619.79976" xlink:href="#ma9d095a413" y="76.19976"/>
    </g>
   </g>
   <g id="matplotlib.axis_5">
    <g id="xtick_7"/>
    <g id="xtick_8"/>
    <g id="xtick_9"/>
   </g>
   <g id="matplotlib.axis_6">
    <g id="ytick_11"/>
    <g id="ytick_12"/>
    <g id="ytick_13"/>
    <g id="ytick_14"/>
    <g id="ytick_15"/>
   </g>
  </g>
  <g id="axes_4">
   <g id="patch_23">
    <path d="M 593.87976 126.59976 &#10;L 604.67976 126.59976 &#10;L 604.67976 40.19976 &#10;L 593.87976 40.19976 &#10;z&#10;" style="fill:none;"/>
   </g>
   <g id="patch_24">
    <path clip-path="url(#p6149f06f86)" d="M 593.87976 40.19976 &#10;L 593.87976 54.59976 &#10;L 593.87976 112.19976 &#10;L 593.87976 126.59976 &#10;L 604.67976 126.59976 &#10;L 604.67976 112.19976 &#10;L 604.67976 54.59976 &#10;L 604.67976 40.19976 &#10;L 604.67976 40.19976 &#10;z&#10;" style="fill:#ffffff;stroke:#ffffff;stroke-linejoin:miter;stroke-width:0.01;"/>
   </g>
   <g id="QuadMesh_1">
    <path clip-path="url(#p6149f06f86)" d="M 593.87976 40.19976 &#10;L 604.67976 40.19976 &#10;L 604.67976 54.59976 &#10;L 593.87976 54.59976 &#10;L 593.87976 40.19976 &#10;" style="fill:#fe9f6d;"/>
    <path clip-path="url(#p6149f06f86)" d="M 593.87976 54.59976 &#10;L 604.67976 54.59976 &#10;L 604.67976 68.99976 &#10;L 593.87976 68.99976 &#10;L 593.87976 54.59976 &#10;" style="fill:#f4675c;"/>
    <path clip-path="url(#p6149f06f86)" d="M 593.87976 68.99976 &#10;L 604.67976 68.99976 &#10;L 604.67976 83.39976 &#10;L 593.87976 83.39976 &#10;L 593.87976 68.99976 &#10;" style="fill:#cf4070;"/>
    <path clip-path="url(#p6149f06f86)" d="M 593.87976 83.39976 &#10;L 604.67976 83.39976 &#10;L 604.67976 97.79976 &#10;L 593.87976 97.79976 &#10;L 593.87976 83.39976 &#10;" style="fill:#9c2e7f;"/>
    <path clip-path="url(#p6149f06f86)" d="M 593.87976 97.79976 &#10;L 604.67976 97.79976 &#10;L 604.67976 112.19976 &#10;L 593.87976 112.19976 &#10;L 593.87976 97.79976 &#10;" style="fill:#6b1d81;"/>
    <path clip-path="url(#p6149f06f86)" d="M 593.87976 112.19976 &#10;L 604.67976 112.19976 &#10;L 604.67976 126.59976 &#10;L 593.87976 126.59976 &#10;L 593.87976 112.19976 &#10;" style="fill:#3b0f70;"/>
   </g>
   <g id="matplotlib.axis_7"/>
   <g id="matplotlib.axis_8">
    <g id="ytick_16">
     <g id="line2d_43">
      <defs>
       <path d="M 0 0 &#10;L 3.5 0 &#10;" id="mda89fb374e" style="stroke:#000000;stroke-width:0.8;"/>
      </defs>
      <g>
       <use style="stroke:#000000;stroke-width:0.8;" x="604.67976" xlink:href="#mda89fb374e" y="119.39976"/>
      </g>
     </g>
     <g id="text_20">
      <text style="font-family:Arial;font-size:9px;font-stretch:normal;font-style:normal;font-weight:normal;text-anchor:start;" transform="rotate(-0, 611.67976, 122.620776)" x="611.67976" y="122.620776">1.0e-12</text>
     </g>
    </g>
    <g id="ytick_17">
     <g id="line2d_44">
      <g>
       <use style="stroke:#000000;stroke-width:0.8;" x="604.67976" xlink:href="#mda89fb374e" y="104.99976"/>
      </g>
     </g>
     <g id="text_21">
      <text style="font-family:Arial;font-size:9px;font-stretch:normal;font-style:normal;font-weight:normal;text-anchor:start;" transform="rotate(-0, 611.67976, 108.220776)" x="611.67976" y="108.220776">1.0e-14</text>
     </g>
    </g>
    <g id="ytick_18">
     <g id="line2d_45">
      <g>
       <use style="stroke:#000000;stroke-width:0.8;" x="604.67976" xlink:href="#mda89fb374e" y="90.59976"/>
      </g>
     </g>
     <g id="text_22">
      <text style="font-family:Arial;font-size:9px;font-stretch:normal;font-style:normal;font-weight:normal;text-anchor:start;" transform="rotate(-0, 611.67976, 93.820776)" x="611.67976" y="93.820776">1.0e-15</text>
     </g>
    </g>
    <g id="ytick_19">
     <g id="line2d_46">
      <g>
       <use style="stroke:#000000;stroke-width:0.8;" x="604.67976" xlink:href="#mda89fb374e" y="76.19976"/>
      </g>
     </g>
     <g id="text_23">
      <text style="font-family:Arial;font-size:9px;font-stretch:normal;font-style:normal;font-weight:normal;text-anchor:start;" transform="rotate(-0, 611.67976, 79.420776)" x="611.67976" y="79.420776">1.0e-17</text>
     </g>
    </g>
    <g id="ytick_20">
     <g id="line2d_47">
      <g>
       <use style="stroke:#000000;stroke-width:0.8;" x="604.67976" xlink:href="#mda89fb374e" y="61.79976"/>
      </g>
     </g>
     <g id="text_24">
      <text style="font-family:Arial;font-size:9px;font-stretch:normal;font-style:normal;font-weight:normal;text-anchor:start;" transform="rotate(-0, 611.67976, 65.020776)" x="611.67976" y="65.020776">1.0e-19</text>
     </g>
    </g>
    <g id="ytick_21">
     <g id="line2d_48">
      <g>
       <use style="stroke:#000000;stroke-width:0.8;" x="604.67976" xlink:href="#mda89fb374e" y="47.39976"/>
      </g>
     </g>
     <g id="text_25">
      <text style="font-family:Arial;font-size:9px;font-stretch:normal;font-style:normal;font-weight:normal;text-anchor:start;" transform="rotate(-0, 611.67976, 50.620776)" x="611.67976" y="50.620776">1.0e-20</text>
     </g>
    </g>
   </g>
   <g id="LineCollection_1"/>
   <g id="patch_25">
    <path d="M 593.87976 40.19976 &#10;L 593.87976 54.59976 &#10;L 593.87976 112.19976 &#10;L 593.87976 126.59976 &#10;L 604.67976 126.59976 &#10;L 604.67976 112.19976 &#10;L 604.67976 54.59976 &#10;L 604.67976 40.19976 &#10;z&#10;" style="fill:none;"/>
   </g>
   <g id="text_26">
    <text style="font-family:Arial;font-size:9px;font-stretch:normal;font-style:normal;font-weight:normal;text-anchor:middle;" transform="rotate(-0, 599.27976, 34.19976)" x="599.27976" y="34.19976">FDR</text>
   </g>
  </g>
  <g id="axes_5">
   <g id="patch_26">
    <path d="M 587.39976 238.73976 &#10;L 648.95976 238.73976 &#10;L 648.95976 139.59576 &#10;L 587.39976 139.59576 &#10;z&#10;" style="fill:none;"/>
   </g>
   <g id="PathCollection_3">
    <g clip-path="url(#pf49a72d9f1)">
     <use style="fill:#ffffff;fill-opacity:0.6;stroke:#ffffff;stroke-opacity:0.6;" x="618.17976" xlink:href="#ma9d095a413" y="189.16776"/>
    </g>
   </g>
   <g id="matplotlib.axis_9">
    <g id="xtick_10"/>
    <g id="xtick_11"/>
    <g id="xtick_12"/>
   </g>
   <g id="matplotlib.axis_10">
    <g id="ytick_22"/>
    <g id="ytick_23"/>
    <g id="ytick_24"/>
   </g>
  </g>
  <g id="axes_6">
   <g id="PathCollection_4">
    <defs>
     <path d="M 0 7.071068 &#10;C 1.875269 7.071068 3.673985 6.326016 5 5 &#10;C 6.326016 3.673985 7.071068 1.875269 7.071068 0 &#10;C 7.071068 -1.875269 6.326016 -3.673985 5 -5 &#10;C 3.673985 -6.326016 1.875269 -7.071068 0 -7.071068 &#10;C -1.875269 -7.071068 -3.673985 -6.326016 -5 -5 &#10;C -6.326016 -3.673985 -7.071068 -1.875269 -7.071068 0 &#10;C -7.071068 1.875269 -6.326016 3.673985 -5 5 &#10;C -3.673985 6.326016 -1.875269 7.071068 0 7.071068 &#10;z&#10;" id="mcdc4fea20d" style="stroke:#c99b82;stroke-width:2.2;"/>
    </defs>
    <g clip-path="url(#p28894e7fd7)">
     <use style="fill:#fe9f6d;stroke:#c99b82;stroke-width:2.2;" x="610.07976" xlink:href="#mcdc4fea20d" y="166.288375"/>
    </g>
   </g>
   <g id="PathCollection_5">
    <defs>
     <path d="M 0 10.1653 &#10;C 2.695869 10.1653 5.281685 9.09422 7.187953 7.187953 &#10;C 9.09422 5.281685 10.1653 2.695869 10.1653 0 &#10;C 10.1653 -2.695869 9.09422 -5.281685 7.187953 -7.187953 &#10;C 5.281685 -9.09422 2.695869 -10.1653 0 -10.1653 &#10;C -2.695869 -10.1653 -5.281685 -9.09422 -7.187953 -7.187953 &#10;C -9.09422 -5.281685 -10.1653 -2.695869 -10.1653 0 &#10;C -10.1653 2.695869 -9.09422 5.281685 -7.187953 7.187953 &#10;C -5.281685 9.09422 -2.695869 10.1653 0 10.1653 &#10;z&#10;" id="m8ec1fcacca" style="stroke:#c99b82;stroke-width:2.2;"/>
    </defs>
    <g clip-path="url(#p28894e7fd7)">
     <use style="fill:#fe9f6d;stroke:#c99b82;stroke-width:2.2;" x="610.07976" xlink:href="#m8ec1fcacca" y="191.748951"/>
    </g>
   </g>
   <g id="PathCollection_6">
    <defs>
     <path d="M 0 11.690452 &#10;C 3.100344 11.690452 6.074124 10.458672 8.266398 8.266398 &#10;C 10.458672 6.074124 11.690452 3.100344 11.690452 0 &#10;C 11.690452 -3.100344 10.458672 -6.074124 8.266398 -8.266398 &#10;C 6.074124 -10.458672 3.100344 -11.690452 0 -11.690452 &#10;C -3.100344 -11.690452 -6.074124 -10.458672 -8.266398 -8.266398 &#10;C -10.458672 -6.074124 -11.690452 -3.100344 -11.690452 0 &#10;C -11.690452 3.100344 -10.458672 6.074124 -8.266398 8.266398 &#10;C -6.074124 10.458672 -3.100344 11.690452 0 11.690452 &#10;z&#10;" id="m59c94a0159" style="stroke:#c99b82;stroke-width:2.2;"/>
    </defs>
    <g clip-path="url(#p28894e7fd7)">
     <use style="fill:#fe9f6d;stroke:#c99b82;stroke-width:2.2;" x="610.07976" xlink:href="#m59c94a0159" y="221.429843"/>
    </g>
   </g>
   <g id="text_27">
    <text style="font-family:Arial;font-size:9px;font-stretch:normal;font-style:normal;font-weight:normal;text-anchor:start;" transform="rotate(-0, 626.27976, 169.744862)" x="626.27976" y="169.744862">10</text>
   </g>
   <g id="text_28">
    <text style="font-family:Arial;font-size:9px;font-stretch:normal;font-style:normal;font-weight:normal;text-anchor:start;" transform="rotate(-0, 626.27976, 195.205438)" x="626.27976" y="195.205438">20</text>
   </g>
   <g id="text_29">
    <text style="font-family:Arial;font-size:9px;font-stretch:normal;font-style:normal;font-weight:normal;text-anchor:start;" transform="rotate(-0, 626.27976, 224.88633)" x="626.27976" y="224.88633">25</text>
   </g>
   <g id="text_30">
    <text style="font-family:Arial;font-size:9px;font-stretch:normal;font-style:normal;font-weight:normal;text-anchor:middle;" transform="rotate(-0, 616.55976, 150.11976)" x="616.55976" y="150.11976">Gene count</text>
   </g>
  </g>
 </g>
 <defs>
  <clipPath id="p4355b843cd">
   <rect height="315.80827" width="380.761991" x="166.767031" y="21.214531"/>
  </clipPath>
  <clipPath id="p585043d0bb">
   <rect height="315.80827" width="95.190498" x="554.009022" y="21.214531"/>
  </clipPath>
  <clipPath id="pe3c0a7e500">
   <rect height="108" width="64.8" x="587.39976" y="22.19976"/>
  </clipPath>
  <clipPath id="p6149f06f86">
   <rect height="86.4" width="10.8" x="593.87976" y="40.19976"/>
  </clipPath>
  <clipPath id="pf49a72d9f1">
   <rect height="99.144" width="61.56" x="587.39976" y="139.59576"/>
  </clipPath>
  <clipPath id="p28894e7fd7">
   <rect height="146.88" width="32.4" x="593.87976" y="156.11976"/>
  </clipPath>
 </defs>
</svg>