<svg id="enrichment_category_graph_svg" height="368.39952pt" version="1.1" viewBox="0 0 659.39976 368.39952" width="659.39976pt" xmlns="http://www.w3.org/2000/svg" xmlns:xlink="http://www.w3.org/1999/xlink">
 <metadata>
  <rdf:rdf xmlns:cc="http://creativecommons.org/ns#" xmlns:dc="http://purl.org/dc/elements/1.1/" xmlns:rdf="http://www.w3.org/1999/02/22-rdf-syntax-ns#">
   <cc:work>
    <dc:type rdf:resource="http://purl.org/dc/dcmitype/StillImage"/>
    <dc:date>2026-01-02T17:24:19.665835</dc:date>
    <dc:format>image/svg+xml</dc:format>
    <dc:creator>
     <cc:agent>
      <dc:title>Matplotlib v3.4.2, https://matplotlib.org/</dc:title>
     </cc:agent>
    </dc:creator>
   </cc:work>
  </rdf:rdf>
 </metadata>
 <defs>
  <style type="text/css">*{stroke-linecap:butt;stroke-linejoin:round;}</style>
 </defs>
 <g id="figure_1">
  <g id="patch_1">
   <path d="M 0 368.39952 &#10;L 659.39976 368.39952 &#10;L 659.39976 0 &#10;L 0 0 &#10;z&#10;" style="fill:none;"/>
  </g>
  <g id="axes_1">
   <g id="patch_2">
    <path d="M 162.257187 337.022801 &#10;L 546.627053 337.022801 &#10;L 546.627053 21.207656 &#10;L 162.257187 21.207656 &#10;z&#10;" style="fill:none;"/>
   </g>
   <g id="matplotlib.axis_1">
    <g id="xtick_1">
     <g id="line2d_1">
      <path clip-path="url(#p9944a31397)" d="M 192.001299 337.022801 &#10;L 192.001299 21.207656 &#10;" style="fill:none;stroke:#d3d3d3;stroke-dasharray:2.22,0.96;stroke-dashoffset:0;stroke-width:0.6;"/>
     </g>
     <g id="line2d_2"/>
     <g id="text_1">
      <text style="font-family:Arial;font-size:9px;font-stretch:normal;font-style:normal;font-weight:normal;text-anchor:middle;" transform="rotate(-0, 192.001299, 346.964832)" x="192.001299" y="346.964832">1.8</text>
     </g>
    </g>
    <g id="xtick_2">
     <g id="line2d_3">
      <path clip-path="url(#p9944a31397)" d="M 239.085595 337.022801 &#10;L 239.085595 21.207656 &#10;" style="fill:none;stroke:#d3d3d3;stroke-dasharray:2.22,0.96;stroke-dashoffset:0;stroke-width:0.6;"/>
     </g>
     <g id="line2d_4"/>
     <g id="text_2">
      <text style="font-family:Arial;font-size:9px;font-stretch:normal;font-style:normal;font-weight:normal;text-anchor:middle;" transform="rotate(-0, 239.085595, 346.964832)" x="239.085595" y="346.964832">1.9</text>
     </g>
    </g>
    <g id="xtick_3">
     <g id="line2d_5">
      <path clip-path="url(#p9944a31397)" d="M 286.169891 337.022801 &#10;L 286.169891 21.207656 &#10;" style="fill:none;stroke:#d3d3d3;stroke-dasharray:2.22,0.96;stroke-dashoffset:0;stroke-width:0.6;"/>
     </g>
     <g id="line2d_6"/>
     <g id="text_3">
      <text style="font-family:Arial;font-size:9px;font-stretch:normal;font-style:normal;font-weight:normal;text-anchor:middle;" transform="rotate(-0, 286.169891, 346.964832)" x="286.169891" y="346.964832">2.0</text>
     </g>
    </g>
    <g id="xtick_4">
     <g id="line2d_7">
      <path clip-path="url(#p9944a31397)" d="M 333.254187 337.022801 &#10;L 333.254187 21.207656 &#10;" style="fill:none;stroke:#d3d3d3;stroke-dasharray:2.22,0.96;stroke-dashoffset:0;stroke-width:0.6;"/>
     </g>
     <g id="line2d_8"/>
     <g id="text_4">
      <text style="font-family:Arial;font-size:9px;font-stretch:normal;font-style:normal;font-weight:normal;text-anchor:middle;" transform="rotate(-0, 333.254187, 346.964832)" x="333.254187" y="346.964832">2.1</text>
     </g>
    </g>
    <g id="xtick_5">
     <g id="line2d_9">
      <path clip-path="url(#p9944a31397)" d="M 380.338483 337.022801 &#10;L 380.338483 21.207656 &#10;" style="fill:none;stroke:#d3d3d3;stroke-dasharray:2.22,0.96;stroke-dashoffset:0;stroke-width:0.6;"/>
     </g>
     <g id="line2d_10"/>
     <g id="text_5">
      <text style="font-family:Arial;font-size:9px;font-stretch:normal;font-style:normal;font-weight:normal;text-anchor:middle;" transform="rotate(-0, 380.338483, 346.964832)" x="380.338483" y="346.964832">2.2</text>
     </g>
    </g>
    <g id="xtick_6">
     <g id="line2d_11">
      <path clip-path="url(#p9944a31397)" d="M 427.422779 337.022801 &#10;L 427.422779 21.207656 &#10;" style="fill:none;stroke:#d3d3d3;stroke-dasharray:2.22,0.96;stroke-dashoffset:0;stroke-width:0.6;"/>
     </g>
     <g id="line2d_12"/>
     <g id="text_6">
      <text style="font-family:Arial;font-size:9px;font-stretch:normal;font-style:normal;font-weight:normal;text-anchor:middle;" transform="rotate(-0, 427.422779, 346.964832)" x="427.422779" y="346.964832">2.3</text>
     </g>
    </g>
    <g id="xtick_7">
     <g id="line2d_13">
      <path clip-path="url(#p9944a31397)" d="M 474.507075 337.022801 &#10;L 474.507075 21.207656 &#10;" style="fill:none;stroke:#d3d3d3;stroke-dasharray:2.22,0.96;stroke-dashoffset:0;stroke-width:0.6;"/>
     </g>
     <g id="line2d_14"/>
     <g id="text_7">
      <text style="font-family:Arial;font-size:9px;font-stretch:normal;font-style:normal;font-weight:normal;text-anchor:middle;" transform="rotate(-0, 474.507075, 346.964832)" x="474.507075" y="346.964832">2.4</text>
     </g>
    </g>
    <g id="xtick_8">
     <g id="line2d_15">
      <path clip-path="url(#p9944a31397)" d="M 521.591371 337.022801 &#10;L 521.591371 21.207656 &#10;" style="fill:none;stroke:#d3d3d3;stroke-dasharray:2.22,0.96;stroke-dashoffset:0;stroke-width:0.6;"/>
     </g>
     <g id="line2d_16"/>
     <g id="text_8">
      <text style="font-family:Arial;font-size:9px;font-stretch:normal;font-style:normal;font-weight:normal;text-anchor:middle;" transform="rotate(-0, 521.591371, 346.964832)" x="521.591371" y="346.964832">2.5</text>
     </g>
    </g>
    <g id="text_9">
     <text style="font-family:Arial;font-size:9px;font-stretch:normal;font-style:normal;font-weight:normal;text-anchor:middle;" transform="rotate(-0, 354.44212, 359.305301)" x="354.44212" y="359.305301">Signal</text>
    </g>
   </g>
   <g id="matplotlib.axis_2">
    <g id="ytick_1">
     <g id="line2d_17"/>
     <g id="text_10">
      <text style="font-family:Arial;font-size:9px;font-stretch:normal;font-style:normal;font-weight:normal;text-anchor:end;" transform="rotate(-0, 158.757187, 53.13914)" x="158.757187" y="53.13914">Fluid shear stress and atherosclerosis</text>
     </g>
    </g>
    <g id="ytick_2">
     <g id="line2d_18"/>
     <g id="text_11">
      <text style="font-family:Arial;font-size:9px;font-stretch:normal;font-style:normal;font-weight:normal;text-anchor:end;" transform="rotate(-0, 158.757187, 81.862967)" x="158.757187" y="81.862967">HIF-1 signaling pathway</text>
     </g>
    </g>
    <g id="ytick_3">
     <g id="line2d_19"/>
     <g id="text_12">
      <text style="font-family:Arial;font-size:9px;font-stretch:normal;font-style:normal;font-weight:normal;text-anchor:end;" transform="rotate(-0, 158.757187, 110.560075)" x="158.757187" y="110.560075">Pathways in cancer</text>
     </g>
    </g>
    <g id="ytick_4">
     <g id="line2d_20"/>
     <g id="text_13">
      <text style="font-family:Arial;font-size:9px;font-stretch:normal;font-style:normal;font-weight:normal;text-anchor:end;" transform="rotate(-0, 158.757187, 139.270543)" x="158.757187" y="139.270543">Malaria</text>
     </g>
    </g>
    <g id="ytick_5">
     <g id="line2d_21"/>
     <g id="text_14">
      <text style="font-family:Arial;font-size:9px;font-stretch:normal;font-style:normal;font-weight:normal;text-anchor:end;" transform="rotate(-0, 158.757187, 167.981011)" x="158.757187" y="167.981011">Platinum drug resistance</text>
     </g>
    </g>
    <g id="ytick_6">
     <g id="line2d_22"/>
     <g id="text_15">
      <text style="font-family:Arial;font-size:9px;font-stretch:normal;font-style:normal;font-weight:normal;text-anchor:end;" transform="rotate(-0, 158.757187, 196.746322)" x="158.757187" y="196.746322">Non-alcoholic fatty liver disease</text>
     </g>
    </g>
    <g id="ytick_7">
     <g id="line2d_23"/>
     <g id="text_16">
      <text style="font-family:Arial;font-size:9px;font-stretch:normal;font-style:normal;font-weight:normal;text-anchor:end;" transform="rotate(-0, 158.757187, 225.401946)" x="158.757187" y="225.401946">Apoptosis</text>
     </g>
    </g>
    <g id="ytick_8">
     <g id="line2d_24"/>
     <g id="text_17">
      <text style="font-family:Arial;font-size:9px;font-stretch:normal;font-style:normal;font-weight:normal;text-anchor:end;" transform="rotate(-0, 158.757187, 254.112414)" x="158.757187" y="254.112414">Hepatocellular carcinoma</text>
     </g>
    </g>
    <g id="ytick_9">
     <g id="line2d_25"/>
     <g id="text_18">
      <text style="font-family:Arial;font-size:9px;font-stretch:normal;font-style:normal;font-weight:normal;text-anchor:end;" transform="rotate(-0, 158.757187, 282.822881)" x="158.757187" y="282.822881">Alzheimer disease</text>
     </g>
    </g>
    <g id="ytick_10">
     <g id="line2d_26"/>
     <g id="text_19">
      <text style="font-family:Arial;font-size:9px;font-stretch:normal;font-style:normal;font-weight:normal;text-anchor:end;" transform="rotate(-0, 158.757187, 311.533349)" x="158.757187" y="311.533349">Measles</text>
     </g>
    </g>
   </g>
   <g id="patch_3">
    <path clip-path="url(#p9944a31397)" d="M 162.257187 294.531309 &#10;L 546.627053 294.531309 &#10;L 546.627053 320.37073 &#10;L 162.257187 320.37073 &#10;z&#10;" style="fill:#3b0f70;opacity:0.1;"/>
   </g>
   <g id="patch_4">
    <path clip-path="url(#p9944a31397)" d="M 162.257187 265.820841 &#10;L 546.627053 265.820841 &#10;L 546.627053 291.660262 &#10;L 162.257187 291.660262 &#10;z&#10;" style="fill:#9c2e7f;opacity:0.1;"/>
   </g>
   <g id="patch_5">
    <path clip-path="url(#p9944a31397)" d="M 162.257187 237.110374 &#10;L 546.627053 237.110374 &#10;L 546.627053 262.949795 &#10;L 162.257187 262.949795 &#10;z&#10;" style="fill:#3b0f70;opacity:0.1;"/>
   </g>
   <g id="patch_6">
    <path clip-path="url(#p9944a31397)" d="M 162.257187 208.399906 &#10;L 546.627053 208.399906 &#10;L 546.627053 234.239327 &#10;L 162.257187 234.239327 &#10;z&#10;" style="fill:#3b0f70;opacity:0.1;"/>
   </g>
   <g id="patch_7">
    <path clip-path="url(#p9944a31397)" d="M 162.257187 179.689438 &#10;L 546.627053 179.689438 &#10;L 546.627053 205.528859 &#10;L 162.257187 205.528859 &#10;z&#10;" style="fill:#6b1d81;opacity:0.1;"/>
   </g>
   <g id="patch_8">
    <path clip-path="url(#p9944a31397)" d="M 162.257187 150.97897 &#10;L 546.627053 150.97897 &#10;L 546.627053 176.818391 &#10;L 162.257187 176.818391 &#10;z&#10;" style="fill:#3b0f70;opacity:0.1;"/>
   </g>
   <g id="patch_9">
    <path clip-path="url(#p9944a31397)" d="M 162.257187 122.268503 &#10;L 546.627053 122.268503 &#10;L 546.627053 148.107924 &#10;L 162.257187 148.107924 &#10;z&#10;" style="fill:#3b0f70;opacity:0.1;"/>
   </g>
   <g id="patch_10">
    <path clip-path="url(#p9944a31397)" d="M 162.257187 93.558035 &#10;L 546.627053 93.558035 &#10;L 546.627053 119.397456 &#10;L 162.257187 119.397456 &#10;z&#10;" style="fill:#fe9f6d;opacity:0.1;"/>
   </g>
   <g id="patch_11">
    <path clip-path="url(#p9944a31397)" d="M 162.257187 64.847567 &#10;L 546.627053 64.847567 &#10;L 546.627053 90.686988 &#10;L 162.257187 90.686988 &#10;z&#10;" style="fill:#6b1d81;opacity:0.1;"/>
   </g>
   <g id="patch_12">
    <path clip-path="url(#p9944a31397)" d="M 162.257187 36.137099 &#10;L 546.627053 36.137099 &#10;L 546.627053 61.97652 &#10;L 162.257187 61.97652 &#10;z&#10;" style="fill:#cf4070;opacity:0.1;"/>
   </g>
   <g id="horizontalLine_KEGG:hsa05418">
    <path data-original-stroke="grey" clip-path="url(#p9944a31397)" d="M 162.257187 49.918124 &#10;L 526.299801 49.918124 &#10;" style="fill:none;stroke:#cf4070;stroke-linecap:square;stroke-width:3;"/>
   </g>
   <g id="horizontalLine_KEGG:hsa04066">
    <path data-original-stroke="grey" clip-path="url(#p9944a31397)" d="M 162.257187 78.628592 &#10;L 328.545758 78.628592 &#10;" style="fill:none;stroke:#6b1d81;stroke-linecap:square;stroke-width:3;"/>
   </g>
   <g id="horizontalLine_KEGG:hsa05200">
    <path data-original-stroke="grey" clip-path="url(#p9944a31397)" d="M 162.257187 107.339059 &#10;L 323.837328 107.339059 &#10;" style="fill:none;stroke:#fe9f6d;stroke-linecap:square;stroke-width:3;"/>
   </g>
   <g id="horizontalLine_KEGG:hsa05144">
    <path data-original-stroke="grey" clip-path="url(#p9944a31397)" d="M 162.257187 136.049527 &#10;L 323.837328 136.049527 &#10;" style="fill:none;stroke:#3b0f70;stroke-linecap:square;stroke-width:3;"/>
   </g>
   <g id="horizontalLine_KEGG:hsa01524">
    <path data-original-stroke="grey" clip-path="url(#p9944a31397)" d="M 162.257187 164.759995 &#10;L 276.753032 164.759995 &#10;" style="fill:none;stroke:#3b0f70;stroke-linecap:square;stroke-width:3;"/>
   </g>
   <g id="horizontalLine_KEGG:hsa04932">
    <path data-original-stroke="grey" clip-path="url(#p9944a31397)" d="M 162.257187 193.470463 &#10;L 243.794025 193.470463 &#10;" style="fill:none;stroke:#6b1d81;stroke-linecap:square;stroke-width:3;"/>
   </g>
   <g id="horizontalLine_KEGG:hsa04210">
    <path data-original-stroke="grey" clip-path="url(#p9944a31397)" d="M 162.257187 222.18093 &#10;L 206.126588 222.18093 &#10;" style="fill:none;stroke:#3b0f70;stroke-linecap:square;stroke-width:3;"/>
   </g>
   <g id="horizontalLine_KEGG:hsa05225">
    <path data-original-stroke="grey" clip-path="url(#p9944a31397)" d="M 162.257187 250.891398 &#10;L 196.709729 250.891398 &#10;" style="fill:none;stroke:#3b0f70;stroke-linecap:square;stroke-width:3;"/>
   </g>
   <g id="horizontalLine_KEGG:hsa05010">
    <path data-original-stroke="grey" clip-path="url(#p9944a31397)" d="M 162.257187 279.601866 &#10;L 187.29287 279.601866 &#10;" style="fill:none;stroke:#9c2e7f;stroke-linecap:square;stroke-width:3;"/>
   </g>
   <g id="horizontalLine_KEGG:hsa05162">
    <path data-original-stroke="grey" clip-path="url(#p9944a31397)" d="M 162.257187 308.312334 &#10;L 182.58444 308.312334 &#10;" style="fill:none;stroke:#3b0f70;stroke-linecap:square;stroke-width:3;"/>
   </g>
   <g id="line2d_27">
    <path clip-path="url(#p9944a31397)" d="M 162.257187 49.918124 &#10;L 526.299801 49.918124 &#10;" style="fill:none;stroke:#ffffff;stroke-linecap:square;stroke-opacity:0.4;stroke-width:3;"/>
   </g>
   <g id="line2d_28">
    <path clip-path="url(#p9944a31397)" d="M 162.257187 78.628592 &#10;L 328.545758 78.628592 &#10;" style="fill:none;stroke:#ffffff;stroke-linecap:square;stroke-opacity:0.4;stroke-width:3;"/>
   </g>
   <g id="line2d_29">
    <path clip-path="url(#p9944a31397)" d="M 162.257187 107.339059 &#10;L 323.837328 107.339059 &#10;" style="fill:none;stroke:#ffffff;stroke-linecap:square;stroke-opacity:0.4;stroke-width:3;"/>
   </g>
   <g id="line2d_30">
    <path clip-path="url(#p9944a31397)" d="M 162.257187 136.049527 &#10;L 323.837328 136.049527 &#10;" style="fill:none;stroke:#ffffff;stroke-linecap:square;stroke-opacity:0.4;stroke-width:3;"/>
   </g>
   <g id="line2d_31">
    <path clip-path="url(#p9944a31397)" d="M 162.257187 164.759995 &#10;L 276.753032 164.759995 &#10;" style="fill:none;stroke:#ffffff;stroke-linecap:square;stroke-opacity:0.4;stroke-width:3;"/>
   </g>
   <g id="line2d_32">
    <path clip-path="url(#p9944a31397)" d="M 162.257187 193.470463 &#10;L 243.794025 193.470463 &#10;" style="fill:none;stroke:#ffffff;stroke-linecap:square;stroke-opacity:0.4;stroke-width:3;"/>
   </g>
   <g id="line2d_33">
    <path clip-path="url(#p9944a31397)" d="M 162.257187 222.18093 &#10;L 206.126588 222.18093 &#10;" style="fill:none;stroke:#ffffff;stroke-linecap:square;stroke-opacity:0.4;stroke-width:3;"/>
   </g>
   <g id="line2d_34">
    <path clip-path="url(#p9944a31397)" d="M 162.257187 250.891398 &#10;L 196.709729 250.891398 &#10;" style="fill:none;stroke:#ffffff;stroke-linecap:square;stroke-opacity:0.4;stroke-width:3;"/>
   </g>
   <g id="line2d_35">
    <path clip-path="url(#p9944a31397)" d="M 162.257187 279.601866 &#10;L 187.29287 279.601866 &#10;" style="fill:none;stroke:#ffffff;stroke-linecap:square;stroke-opacity:0.4;stroke-width:3;"/>
   </g>
   <g id="line2d_36">
    <path clip-path="url(#p9944a31397)" d="M 162.257187 308.312334 &#10;L 182.58444 308.312334 &#10;" style="fill:none;stroke:#ffffff;stroke-linecap:square;stroke-opacity:0.4;stroke-width:3;"/>
   </g>
   <g id="dots_plot">
    <path id="circle_KEGG:hsa05418" data-original-stroke="grey" clip-path="url(#p9944a31397)" d="M 526.299801 59.153605 &#10;C 528.749079 59.153605 531.098371 58.180497 532.830273 56.448596 &#10;C 534.562174 54.716694 535.535282 52.367402 535.535282 49.918124 &#10;C 535.535282 47.468846 534.562174 45.119554 532.830273 43.387652 &#10;C 531.098371 41.655751 528.749079 40.682643 526.299801 40.682643 &#10;C 523.850523 40.682643 521.501231 41.655751 519.769329 43.387652 &#10;C 518.037428 45.119554 517.06432 47.468846 517.06432 49.918124 &#10;C 517.06432 52.367402 518.037428 54.716694 519.769329 56.448596 &#10;C 521.501231 58.180497 523.850523 59.153605 526.299801 59.153605 &#10;z&#10;" style="fill:#cf4070;stroke:#cf4070;stroke-width:2.2;"/>
    <path id="circle_KEGG:hsa04066" data-original-stroke="grey" clip-path="url(#p9944a31397)" d="M 328.545758 86.853375 &#10;C 330.726996 86.853375 332.819189 85.98676 334.361558 84.444392 &#10;C 335.903926 82.902024 336.770541 80.80983 336.770541 78.628592 &#10;C 336.770541 76.447354 335.903926 74.35516 334.361558 72.812792 &#10;C 332.819189 71.270424 330.726996 70.403808 328.545758 70.403808 &#10;C 326.36452 70.403808 324.272326 71.270424 322.729958 72.812792 &#10;C 321.18759 74.35516 320.320974 76.447354 320.320974 78.628592 &#10;C 320.320974 80.80983 321.18759 82.902024 322.729958 84.444392 &#10;C 324.272326 85.98676 326.36452 86.853375 328.545758 86.853375 &#10;z&#10;" style="fill:#6b1d81;stroke:#6b1d81;stroke-width:2.2;"/>
    <path id="circle_KEGG:hsa05200" data-original-stroke="grey" clip-path="url(#p9944a31397)" d="M 323.837328 119.586508 &#10;C 327.085389 119.586508 330.200856 118.29604 332.497582 115.999313 &#10;C 334.794308 113.702587 336.084777 110.587121 336.084777 107.339059 &#10;C 336.084777 104.090998 334.794308 100.975532 332.497582 98.678805 &#10;C 330.200856 96.382079 327.085389 95.091611 323.837328 95.091611 &#10;C 320.589267 95.091611 317.4738 96.382079 315.177074 98.678805 &#10;C 312.880348 100.975532 311.589879 104.090998 311.589879 107.339059 &#10;C 311.589879 110.587121 312.880348 113.702587 315.177074 115.999313 &#10;C 317.4738 118.29604 320.589267 119.586508 323.837328 119.586508 &#10;z&#10;" style="fill:#fe9f6d;stroke:#fe9f6d;stroke-width:2.2;"/>
    <path id="circle_KEGG:hsa05144" data-original-stroke="grey" clip-path="url(#p9944a31397)" d="M 323.837328 143.120595 &#10;C 325.712597 143.120595 327.511313 142.375543 328.837328 141.049527 &#10;C 330.163344 139.723512 330.908396 137.924796 330.908396 136.049527 &#10;C 330.908396 134.174258 330.163344 132.375543 328.837328 131.049527 &#10;C 327.511313 129.723512 325.712597 128.978459 323.837328 128.978459 &#10;C 321.962059 128.978459 320.163344 129.723512 318.837328 131.049527 &#10;C 317.511313 132.375543 316.76626 134.174258 316.76626 136.049527 &#10;C 316.76626 137.924796 317.511313 139.723512 318.837328 141.049527 &#10;C 320.163344 142.375543 321.962059 143.120595 323.837328 143.120595 &#10;z&#10;" style="fill:#3b0f70;stroke:#3b0f70;stroke-width:2.2;"/>
    <path id="circle_KEGG:hsa01524" data-original-stroke="grey" clip-path="url(#p9944a31397)" d="M 276.753032 172.235445 &#10;C 278.735545 172.235445 280.637125 171.447784 282.038973 170.045936 &#10;C 283.440822 168.644088 284.228482 166.742507 284.228482 164.759995 &#10;C 284.228482 162.777482 283.440822 160.875902 282.038973 159.474053 &#10;C 280.637125 158.072205 278.735545 157.284545 276.753032 157.284545 &#10;C 274.77052 157.284545 272.868939 158.072205 271.467091 159.474053 &#10;C 270.065243 160.875902 269.277582 162.777482 269.277582 164.759995 &#10;C 269.277582 166.742507 270.065243 168.644088 271.467091 170.045936 &#10;C 272.868939 171.447784 274.77052 172.235445 276.753032 172.235445 &#10;z&#10;" style="fill:#3b0f70;stroke:#3b0f70;stroke-width:2.2;"/>
    <path id="circle_KEGG:hsa04932" data-original-stroke="grey" clip-path="url(#p9944a31397)" d="M 243.794025 202.045392 &#10;C 246.068123 202.045392 248.249385 201.141883 249.857415 199.533853 &#10;C 251.465445 197.925823 252.368954 195.74456 252.368954 193.470463 &#10;C 252.368954 191.196365 251.465445 189.015102 249.857415 187.407072 &#10;C 248.249385 185.799042 246.068123 184.895533 243.794025 184.895533 &#10;C 241.519927 184.895533 239.338664 185.799042 237.730634 187.407072 &#10;C 236.122604 189.015102 235.219096 191.196365 235.219096 193.470463 &#10;C 235.219096 195.74456 236.122604 197.925823 237.730634 199.533853 &#10;C 239.338664 201.141883 241.519927 202.045392 243.794025 202.045392 &#10;z&#10;" style="fill:#6b1d81;stroke:#6b1d81;stroke-width:2.2;"/>
    <path id="circle_KEGG:hsa04210" data-original-stroke="grey" clip-path="url(#p9944a31397)" d="M 206.126588 230.405714 &#10;C 208.307826 230.405714 210.40002 229.539099 211.942388 227.99673 &#10;C 213.484756 226.454362 214.351371 224.362168 214.351371 222.18093 &#10;C 214.351371 219.999692 213.484756 217.907499 211.942388 216.36513 &#10;C 210.40002 214.822762 208.307826 213.956147 206.126588 213.956147 &#10;C 203.94535 213.956147 201.853156 214.822762 200.310788 216.36513 &#10;C 198.76842 217.907499 197.901805 219.999692 197.901805 222.18093 &#10;C 197.901805 224.362168 198.76842 226.454362 200.310788 227.99673 &#10;C 201.853156 229.539099 203.94535 230.405714 206.126588 230.405714 &#10;z&#10;" style="fill:#3b0f70;stroke:#3b0f70;stroke-width:2.2;"/>
    <path id="circle_KEGG:hsa05225" data-original-stroke="grey" clip-path="url(#p9944a31397)" d="M 196.709729 259.466327 &#10;C 198.983827 259.466327 201.165089 258.562819 202.773119 256.954789 &#10;C 204.381149 255.346759 205.284658 253.165496 205.284658 250.891398 &#10;C 205.284658 248.6173 204.381149 246.436037 202.773119 244.828007 &#10;C 201.165089 243.219977 198.983827 242.316469 196.709729 242.316469 &#10;C 194.435631 242.316469 192.254368 243.219977 190.646338 244.828007 &#10;C 189.038308 246.436037 188.1348 248.6173 188.1348 250.891398 &#10;C 188.1348 253.165496 189.038308 255.346759 190.646338 256.954789 &#10;C 192.254368 258.562819 194.435631 259.466327 196.709729 259.466327 &#10;z&#10;" style="fill:#3b0f70;stroke:#3b0f70;stroke-width:2.2;"/>
    <path id="circle_KEGG:hsa05010" data-original-stroke="grey" clip-path="url(#p9944a31397)" d="M 187.29287 290.033717 &#10;C 190.059429 290.033717 192.71305 288.934552 194.669303 286.978299 &#10;C 196.625556 285.022046 197.724721 282.368425 197.724721 279.601866 &#10;C 197.724721 276.835306 196.625556 274.181686 194.669303 272.225433 &#10;C 192.71305 270.26918 190.059429 269.170014 187.29287 269.170014 &#10;C 184.52631 269.170014 181.872689 270.26918 179.916437 272.225433 &#10;C 177.960184 274.181686 176.861018 276.835306 176.861018 279.601866 &#10;C 176.861018 282.368425 177.960184 285.022046 179.916437 286.978299 &#10;C 181.872689 288.934552 184.52631 290.033717 187.29287 290.033717 &#10;z&#10;" style="fill:#9c2e7f;stroke:#9c2e7f;stroke-width:2.2;"/>
    <path id="circle_KEGG:hsa05162" data-original-stroke="grey" clip-path="url(#p9944a31397)" d="M 182.58444 316.537117 &#10;C 184.765678 316.537117 186.857872 315.670502 188.40024 314.128134 &#10;C 189.942608 312.585765 190.809223 310.493572 190.809223 308.312334 &#10;C 190.809223 306.131096 189.942608 304.038902 188.40024 302.496534 &#10;C 186.857872 300.954165 184.765678 300.08755 182.58444 300.08755 &#10;C 180.403202 300.08755 178.311008 300.954165 176.76864 302.496534 &#10;C 175.226272 304.038902 174.359657 306.131096 174.359657 308.312334 &#10;C 174.359657 310.493572 175.226272 312.585765 176.76864 314.128134 &#10;C 178.311008 315.670502 180.403202 316.537117 182.58444 316.537117 &#10;z&#10;" style="fill:#3b0f70;stroke:#3b0f70;stroke-width:2.2;"/>
   </g>
   <g id="PathCollection_1">
    <path clip-path="url(#p9944a31397)" d="M 526.299801 59.153605 &#10;C 528.749079 59.153605 531.098371 58.180497 532.830273 56.448596 &#10;C 534.562174 54.716694 535.535282 52.367402 535.535282 49.918124 &#10;C 535.535282 47.468846 534.562174 45.119554 532.830273 43.387652 &#10;C 531.098371 41.655751 528.749079 40.682643 526.299801 40.682643 &#10;C 523.850523 40.682643 521.501231 41.655751 519.769329 43.387652 &#10;C 518.037428 45.119554 517.06432 47.468846 517.06432 49.918124 &#10;C 517.06432 52.367402 518.037428 54.716694 519.769329 56.448596 &#10;C 521.501231 58.180497 523.850523 59.153605 526.299801 59.153605 &#10;z&#10;" style="fill:none;stroke:#808080;stroke-opacity:0.45;stroke-width:2.2;"/>
    <path clip-path="url(#p9944a31397)" d="M 328.545758 86.853375 &#10;C 330.726996 86.853375 332.819189 85.98676 334.361558 84.444392 &#10;C 335.903926 82.902024 336.770541 80.80983 336.770541 78.628592 &#10;C 336.770541 76.447354 335.903926 74.35516 334.361558 72.812792 &#10;C 332.819189 71.270424 330.726996 70.403808 328.545758 70.403808 &#10;C 326.36452 70.403808 324.272326 71.270424 322.729958 72.812792 &#10;C 321.18759 74.35516 320.320974 76.447354 320.320974 78.628592 &#10;C 320.320974 80.80983 321.18759 82.902024 322.729958 84.444392 &#10;C 324.272326 85.98676 326.36452 86.853375 328.545758 86.853375 &#10;z&#10;" style="fill:none;stroke:#808080;stroke-opacity:0.45;stroke-width:2.2;"/>
    <path clip-path="url(#p9944a31397)" d="M 323.837328 119.586508 &#10;C 327.085389 119.586508 330.200856 118.29604 332.497582 115.999313 &#10;C 334.794308 113.702587 336.084777 110.587121 336.084777 107.339059 &#10;C 336.084777 104.090998 334.794308 100.975532 332.497582 98.678805 &#10;C 330.200856 96.382079 327.085389 95.091611 323.837328 95.091611 &#10;C 320.589267 95.091611 317.4738 96.382079 315.177074 98.678805 &#10;C 312.880348 100.975532 311.589879 104.090998 311.589879 107.339059 &#10;C 311.589879 110.587121 312.880348 113.702587 315.177074 115.999313 &#10;C 317.4738 118.29604 320.589267 119.586508 323.837328 119.586508 &#10;z&#10;" style="fill:none;stroke:#808080;stroke-opacity:0.45;stroke-width:2.2;"/>
    <path clip-path="url(#p9944a31397)" d="M 323.837328 143.120595 &#10;C 325.712597 143.120595 327.511313 142.375543 328.837328 141.049527 &#10;C 330.163344 139.723512 330.908396 137.924796 330.908396 136.049527 &#10;C 330.908396 134.174258 330.163344 132.375543 328.837328 131.049527 &#10;C 327.511313 129.723512 325.712597 128.978459 323.837328 128.978459 &#10;C 321.962059 128.978459 320.163344 129.723512 318.837328 131.049527 &#10;C 317.511313 132.375543 316.76626 134.174258 316.76626 136.049527 &#10;C 316.76626 137.924796 317.511313 139.723512 318.837328 141.049527 &#10;C 320.163344 142.375543 321.962059 143.120595 323.837328 143.120595 &#10;z&#10;" style="fill:none;stroke:#808080;stroke-opacity:0.45;stroke-width:2.2;"/>
    <path clip-path="url(#p9944a31397)" d="M 276.753032 172.235445 &#10;C 278.735545 172.235445 280.637125 171.447784 282.038973 170.045936 &#10;C 283.440822 168.644088 284.228482 166.742507 284.228482 164.759995 &#10;C 284.228482 162.777482 283.440822 160.875902 282.038973 159.474053 &#10;C 280.637125 158.072205 278.735545 157.284545 276.753032 157.284545 &#10;C 274.77052 157.284545 272.868939 158.072205 271.467091 159.474053 &#10;C 270.065243 160.875902 269.277582 162.777482 269.277582 164.759995 &#10;C 269.277582 166.742507 270.065243 168.644088 271.467091 170.045936 &#10;C 272.868939 171.447784 274.77052 172.235445 276.753032 172.235445 &#10;z&#10;" style="fill:none;stroke:#808080;stroke-opacity:0.45;stroke-width:2.2;"/>
    <path clip-path="url(#p9944a31397)" d="M 243.794025 202.045392 &#10;C 246.068123 202.045392 248.249385 201.141883 249.857415 199.533853 &#10;C 251.465445 197.925823 252.368954 195.74456 252.368954 193.470463 &#10;C 252.368954 191.196365 251.465445 189.015102 249.857415 187.407072 &#10;C 248.249385 185.799042 246.068123 184.895533 243.794025 184.895533 &#10;C 241.519927 184.895533 239.338664 185.799042 237.730634 187.407072 &#10;C 236.122604 189.015102 235.219096 191.196365 235.219096 193.470463 &#10;C 235.219096 195.74456 236.122604 197.925823 237.730634 199.533853 &#10;C 239.338664 201.141883 241.519927 202.045392 243.794025 202.045392 &#10;z&#10;" style="fill:none;stroke:#808080;stroke-opacity:0.45;stroke-width:2.2;"/>
    <path clip-path="url(#p9944a31397)" d="M 206.126588 230.405714 &#10;C 208.307826 230.405714 210.40002 229.539099 211.942388 227.99673 &#10;C 213.484756 226.454362 214.351371 224.362168 214.351371 222.18093 &#10;C 214.351371 219.999692 213.484756 217.907499 211.942388 216.36513 &#10;C 210.40002 214.822762 208.307826 213.956147 206.126588 213.956147 &#10;C 203.94535 213.956147 201.853156 214.822762 200.310788 216.36513 &#10;C 198.76842 217.907499 197.901805 219.999692 197.901805 222.18093 &#10;C 197.901805 224.362168 198.76842 226.454362 200.310788 227.99673 &#10;C 201.853156 229.539099 203.94535 230.405714 206.126588 230.405714 &#10;z&#10;" style="fill:none;stroke:#808080;stroke-opacity:0.45;stroke-width:2.2;"/>
    <path clip-path="url(#p9944a31397)" d="M 196.709729 259.466327 &#10;C 198.983827 259.466327 201.165089 258.562819 202.773119 256.954789 &#10;C 204.381149 255.346759 205.284658 253.165496 205.284658 250.891398 &#10;C 205.284658 248.6173 204.381149 246.436037 202.773119 244.828007 &#10;C 201.165089 243.219977 198.983827 242.316469 196.709729 242.316469 &#10;C 194.435631 242.316469 192.254368 243.219977 190.646338 244.828007 &#10;C 189.038308 246.436037 188.1348 248.6173 188.1348 250.891398 &#10;C 188.1348 253.165496 189.038308 255.346759 190.646338 256.954789 &#10;C 192.254368 258.562819 194.435631 259.466327 196.709729 259.466327 &#10;z&#10;" style="fill:none;stroke:#808080;stroke-opacity:0.45;stroke-width:2.2;"/>
    <path clip-path="url(#p9944a31397)" d="M 187.29287 290.033717 &#10;C 190.059429 290.033717 192.71305 288.934552 194.669303 286.978299 &#10;C 196.625556 285.022046 197.724721 282.368425 197.724721 279.601866 &#10;C 197.724721 276.835306 196.625556 274.181686 194.669303 272.225433 &#10;C 192.71305 270.26918 190.059429 269.170014 187.29287 269.170014 &#10;C 184.52631 269.170014 181.872689 270.26918 179.916437 272.225433 &#10;C 177.960184 274.181686 176.861018 276.835306 176.861018 279.601866 &#10;C 176.861018 282.368425 177.960184 285.022046 179.916437 286.978299 &#10;C 181.872689 288.934552 184.52631 290.033717 187.29287 290.033717 &#10;z&#10;" style="fill:none;stroke:#808080;stroke-opacity:0.45;stroke-width:2.2;"/>
    <path clip-path="url(#p9944a31397)" d="M 182.58444 316.537117 &#10;C 184.765678 316.537117 186.857872 315.670502 188.40024 314.128134 &#10;C 189.942608 312.585765 190.809223 310.493572 190.809223 308.312334 &#10;C 190.809223 306.131096 189.942608 304.038902 188.40024 302.496534 &#10;C 186.857872 300.954165 184.765678 300.08755 182.58444 300.08755 &#10;C 180.403202 300.08755 178.311008 300.954165 176.76864 302.496534 &#10;C 175.226272 304.038902 174.359657 306.131096 174.359657 308.312334 &#10;C 174.359657 310.493572 175.226272 312.585765 176.76864 314.128134 &#10;C 178.311008 315.670502 180.403202 316.537117 182.58444 316.537117 &#10;z&#10;" style="fill:none;stroke:#808080;stroke-opacity:0.45;stroke-width:2.2;"/>
   </g>
   <g id="text_20">
    <text style="font-family:Arial;font-size:11px;font-stretch:normal;font-style:normal;font-weight:normal;text-anchor:middle;" transform="rotate(-0, 354.44212, 15.207656)" x="354.44212" y="15.207656">KEGG Pathways enrichment</text>
   </g>
   <g id="line2d_37">
    <path clip-path="url(#p9944a31397)" d="M 526.299801 43.453202 &#10;L 526.299801 56.383046 &#10;" style="fill:none;stroke:#808080;stroke-dasharray:1.85,0.8;stroke-dashoffset:0;stroke-width:0.5;"/>
   </g>
   <g id="line2d_38">
    <path clip-path="url(#p9944a31397)" d="M 328.545758 73.50124 &#10;L 328.545758 83.755943 &#10;" style="fill:none;stroke:#808080;stroke-dasharray:1.85,0.8;stroke-dashoffset:0;stroke-width:0.5;"/>
   </g>
   <g id="line2d_39">
    <path clip-path="url(#p9944a31397)" d="M 323.837328 95.969714 &#10;L 323.837328 118.708405 &#10;" style="fill:none;stroke:#808080;stroke-dasharray:1.85,0.8;stroke-dashoffset:0;stroke-width:0.5;"/>
   </g>
   <g id="line2d_40">
    <path clip-path="url(#p9944a31397)" d="M 323.837328 132.259745 &#10;L 323.837328 139.839309 &#10;" style="fill:none;stroke:#808080;stroke-dasharray:1.85,0.8;stroke-dashoffset:0;stroke-width:0.5;"/>
   </g>
   <g id="line2d_41">
    <path clip-path="url(#p9944a31397)" d="M 276.753032 160.524356 &#10;L 276.753032 168.995633 &#10;" style="fill:none;stroke:#808080;stroke-dasharray:1.85,0.8;stroke-dashoffset:0;stroke-width:0.5;"/>
   </g>
   <g id="line2d_42">
    <path clip-path="url(#p9944a31397)" d="M 243.794025 187.897254 &#10;L 243.794025 199.043671 &#10;" style="fill:none;stroke:#808080;stroke-dasharray:1.85,0.8;stroke-dashoffset:0;stroke-width:0.5;"/>
   </g>
   <g id="line2d_43">
    <path clip-path="url(#p9944a31397)" d="M 206.126588 217.053579 &#10;L 206.126588 227.308282 &#10;" style="fill:none;stroke:#808080;stroke-dasharray:1.85,0.8;stroke-dashoffset:0;stroke-width:0.5;"/>
   </g>
   <g id="line2d_44">
    <path clip-path="url(#p9944a31397)" d="M 196.709729 245.31819 &#10;L 196.709729 256.464607 &#10;" style="fill:none;stroke:#808080;stroke-dasharray:1.85,0.8;stroke-dashoffset:0;stroke-width:0.5;"/>
   </g>
   <g id="line2d_45">
    <path clip-path="url(#p9944a31397)" d="M 187.29287 271.353517 &#10;L 187.29287 287.850214 &#10;" style="fill:none;stroke:#808080;stroke-dasharray:1.85,0.8;stroke-dashoffset:0;stroke-width:0.5;"/>
   </g>
   <g id="line2d_46">
    <path clip-path="url(#p9944a31397)" d="M 182.58444 303.184982 &#10;L 182.58444 313.439685 &#10;" style="fill:none;stroke:#808080;stroke-dasharray:1.85,0.8;stroke-dashoffset:0;stroke-width:0.5;"/>
   </g>
   <g id="invisibleRectangle_KEGG:hsa05162" style="cursor: pointer;">
    <path clip-path="url(#p9944a31397)" d="M 162.257187 294.531309 &#10;L 546.627053 294.531309 &#10;L 546.627053 320.37073 &#10;L 162.257187 320.37073 &#10;z&#10;" style="fill:#ffffff;opacity:0.01;"/>
   </g>
   <g id="invisibleRectangle_KEGG:hsa05010" style="cursor: pointer;">
    <path clip-path="url(#p9944a31397)" d="M 162.257187 265.820841 &#10;L 546.627053 265.820841 &#10;L 546.627053 291.660262 &#10;L 162.257187 291.660262 &#10;z&#10;" style="fill:#ffffff;opacity:0.01;"/>
   </g>
   <g id="invisibleRectangle_KEGG:hsa05225" style="cursor: pointer;">
    <path clip-path="url(#p9944a31397)" d="M 162.257187 237.110374 &#10;L 546.627053 237.110374 &#10;L 546.627053 262.949795 &#10;L 162.257187 262.949795 &#10;z&#10;" style="fill:#ffffff;opacity:0.01;"/>
   </g>
   <g id="invisibleRectangle_KEGG:hsa04210" style="cursor: pointer;">
    <path clip-path="url(#p9944a31397)" d="M 162.257187 208.399906 &#10;L 546.627053 208.399906 &#10;L 546.627053 234.239327 &#10;L 162.257187 234.239327 &#10;z&#10;" style="fill:#ffffff;opacity:0.01;"/>
   </g>
   <g id="invisibleRectangle_KEGG:hsa04932" style="cursor: pointer;">
    <path clip-path="url(#p9944a31397)" d="M 162.257187 179.689438 &#10;L 546.627053 179.689438 &#10;L 546.627053 205.528859 &#10;L 162.257187 205.528859 &#10;z&#10;" style="fill:#ffffff;opacity:0.01;"/>
   </g>
   <g id="invisibleRectangle_KEGG:hsa01524" style="cursor: pointer;">
    <path clip-path="url(#p9944a31397)" d="M 162.257187 150.97897 &#10;L 546.627053 150.97897 &#10;L 546.627053 176.818391 &#10;L 162.257187 176.818391 &#10;z&#10;" style="fill:#ffffff;opacity:0.01;"/>
   </g>
   <g id="invisibleRectangle_KEGG:hsa05144" style="cursor: pointer;">
    <path clip-path="url(#p9944a31397)" d="M 162.257187 122.268503 &#10;L 546.627053 122.268503 &#10;L 546.627053 148.107924 &#10;L 162.257187 148.107924 &#10;z&#10;" style="fill:#ffffff;opacity:0.01;"/>
   </g>
   <g id="invisibleRectangle_KEGG:hsa05200" style="cursor: pointer;">
    <path clip-path="url(#p9944a31397)" d="M 162.257187 93.558035 &#10;L 546.627053 93.558035 &#10;L 546.627053 119.397456 &#10;L 162.257187 119.397456 &#10;z&#10;" style="fill:#ffffff;opacity:0.01;"/>
   </g>
   <g id="invisibleRectangle_KEGG:hsa04066" style="cursor: pointer;">
    <path clip-path="url(#p9944a31397)" d="M 162.257187 64.847567 &#10;L 546.627053 64.847567 &#10;L 546.627053 90.686988 &#10;L 162.257187 90.686988 &#10;z&#10;" style="fill:#ffffff;opacity:0.01;"/>
   </g>
   <g id="invisibleRectangle_KEGG:hsa05418" style="cursor: pointer;">
    <path clip-path="url(#p9944a31397)" d="M 162.257187 36.137099 &#10;L 546.627053 36.137099 &#10;L 546.627053 61.97652 &#10;L 162.257187 61.97652 &#10;z&#10;" style="fill:#ffffff;opacity:0.01;"/>
   </g>
  </g>
  <g id="axes_2">
   <g id="patch_13">
    <path d="M 553.107053 337.022801 &#10;L 649.19952 337.022801 &#10;L 649.19952 21.207656 &#10;L 553.107053 21.207656 &#10;z&#10;" style="fill:none;"/>
   </g>
   <g id="patch_14">
    <path clip-path="url(#pfb54265fc6)" d="M 553.107053 320.514282 &#10;L 565.118612 320.514282 &#10;L 565.118612 294.387757 &#10;L 553.107053 294.387757 &#10;z&#10;" style="fill:#3b0f70;"/>
   </g>
   <g id="patch_15">
    <path clip-path="url(#pfb54265fc6)" d="M 553.107053 291.803815 &#10;L 565.118612 291.803815 &#10;L 565.118612 265.677289 &#10;L 553.107053 265.677289 &#10;z&#10;" style="fill:#9c2e7f;"/>
   </g>
   <g id="patch_16">
    <path clip-path="url(#pfb54265fc6)" d="M 553.107053 263.093347 &#10;L 565.118612 263.093347 &#10;L 565.118612 236.966821 &#10;L 553.107053 236.966821 &#10;z&#10;" style="fill:#3b0f70;"/>
   </g>
   <g id="patch_17">
    <path clip-path="url(#pfb54265fc6)" d="M 553.107053 234.382879 &#10;L 565.118612 234.382879 &#10;L 565.118612 208.256353 &#10;L 553.107053 208.256353 &#10;z&#10;" style="fill:#3b0f70;"/>
   </g>
   <g id="patch_18">
    <path clip-path="url(#pfb54265fc6)" d="M 553.107053 205.672411 &#10;L 565.118612 205.672411 &#10;L 565.118612 179.545886 &#10;L 553.107053 179.545886 &#10;z&#10;" style="fill:#6b1d81;"/>
   </g>
   <g id="patch_19">
    <path clip-path="url(#pfb54265fc6)" d="M 553.107053 176.961944 &#10;L 565.118612 176.961944 &#10;L 565.118612 150.835418 &#10;L 553.107053 150.835418 &#10;z&#10;" style="fill:#3b0f70;"/>
   </g>
   <g id="patch_20">
    <path clip-path="url(#pfb54265fc6)" d="M 553.107053 148.251476 &#10;L 565.118612 148.251476 &#10;L 565.118612 122.12495 &#10;L 553.107053 122.12495 &#10;z&#10;" style="fill:#3b0f70;"/>
   </g>
   <g id="patch_21">
    <path clip-path="url(#pfb54265fc6)" d="M 553.107053 119.541008 &#10;L 565.118612 119.541008 &#10;L 565.118612 93.414483 &#10;L 553.107053 93.414483 &#10;z&#10;" style="fill:#fe9f6d;"/>
   </g>
   <g id="patch_22">
    <path clip-path="url(#pfb54265fc6)" d="M 553.107053 90.83054 &#10;L 565.118612 90.83054 &#10;L 565.118612 64.704015 &#10;L 553.107053 64.704015 &#10;z&#10;" style="fill:#6b1d81;"/>
   </g>
   <g id="patch_23">
    <path clip-path="url(#pfb54265fc6)" d="M 553.107053 62.120073 &#10;L 565.118612 62.120073 &#10;L 565.118612 35.993547 &#10;L 553.107053 35.993547 &#10;z&#10;" style="fill:#cf4070;"/>
   </g>
   <g id="matplotlib.axis_3"/>
   <g id="matplotlib.axis_4"/>
   <g id="text_21">
    <text style="font-family:Arial;font-size:9px;font-stretch:normal;font-style:normal;font-weight:normal;" transform="translate(579.45892 222.381719)rotate(-90)">Groups at similarity 0.7</text>
   </g>
  </g>
  <g id="axes_3">
   <g id="patch_24">
    <path d="M 587.39976 130.19976 &#10;L 652.19976 130.19976 &#10;L 652.19976 22.19976 &#10;L 587.39976 22.19976 &#10;z&#10;" style="fill:none;"/>
   </g>
   <g id="PathCollection_2">
    <defs>
     <path d="M -70.710678 70.710678 &#10;L 70.710678 70.710678 &#10;L 70.710678 -70.710678 &#10;L -70.710678 -70.710678 &#10;z&#10;" id="m39db9cf309" style="stroke:#ffffff;stroke-opacity:0.6;"/>
    </defs>
    <g clip-path="url(#pd5a28f1d3e)">
     <use style="fill:#ffffff;fill-opacity:0.6;stroke:#ffffff;stroke-opacity:0.6;" x="619.79976" xlink:href="#m39db9cf309" y="76.19976"/>
    </g>
   </g>
   <g id="matplotlib.axis_5">
    <g id="xtick_9"/>
    <g id="xtick_10"/>
    <g id="xtick_11"/>
   </g>
   <g id="matplotlib.axis_6">
    <g id="ytick_11"/>
    <g id="ytick_12"/>
    <g id="ytick_13"/>
    <g id="ytick_14"/>
    <g id="ytick_15"/>
   </g>
  </g>
  <g id="axes_4">
   <g id="patch_25">
    <path d="M 593.87976 126.59976 &#10;L 604.67976 126.59976 &#10;L 604.67976 40.19976 &#10;L 593.87976 40.19976 &#10;z&#10;" style="fill:none;"/>
   </g>
   <g id="patch_26">
    <path clip-path="url(#p4b0fab2cea)" d="M 593.87976 40.19976 &#10;L 593.87976 54.59976 &#10;L 593.87976 112.19976 &#10;L 593.87976 126.59976 &#10;L 604.67976 126.59976 &#10;L 604.67976 112.19976 &#10;L 604.67976 54.59976 &#10;L 604.67976 40.19976 &#10;L 604.67976 40.19976 &#10;z&#10;" style="fill:#ffffff;stroke:#ffffff;stroke-linejoin:miter;stroke-width:0.01;"/>
   </g>
   <g id="QuadMesh_1">
    <path clip-path="url(#p4b0fab2cea)" d="M 593.87976 40.19976 &#10;L 604.67976 40.19976 &#10;L 604.67976 54.59976 &#10;L 593.87976 54.59976 &#10;L 593.87976 40.19976 &#10;" style="fill:#fe9f6d;"/>
    <path clip-path="url(#p4b0fab2cea)" d="M 593.87976 54.59976 &#10;L 604.67976 54.59976 &#10;L 604.67976 68.99976 &#10;L 593.87976 68.99976 &#10;L 593.87976 54.59976 &#10;" style="fill:#f4675c;"/>
    <path clip-path="url(#p4b0fab2cea)" d="M 593.87976 68.99976 &#10;L 604.67976 68.99976 &#10;L 604.67976 83.39976 &#10;L 593.87976 83.39976 &#10;L 593.87976 68.99976 &#10;" style="fill:#cf4070;"/>
    <path clip-path="url(#p4b0fab2cea)" d="M 593.87976 83.39976 &#10;L 604.67976 83.39976 &#10;L 604.67976 97.79976 &#10;L 593.87976 97.79976 &#10;L 593.87976 83.39976 &#10;" style="fill:#9c2e7f;"/>
    <path clip-path="url(#p4b0fab2cea)" d="M 593.87976 97.79976 &#10;L 604.67976 97.79976 &#10;L 604.67976 112.19976 &#10;L 593.87976 112.19976 &#10;L 593.87976 97.79976 &#10;" style="fill:#6b1d81;"/>
    <path clip-path="url(#p4b0fab2cea)" d="M 593.87976 112.19976 &#10;L 604.67976 112.19976 &#10;L 604.67976 126.59976 &#10;L 593.87976 126.59976 &#10;L 593.87976 112.19976 &#10;" style="fill:#3b0f70;"/>
   </g>
   <g id="matplotlib.axis_7"/>
   <g id="matplotlib.axis_8">
    <g id="ytick_16">
     <g id="line2d_47">
      <defs>
       <path d="M 0 0 &#10;L 3.5 0 &#10;" id="mcd813718c9" style="stroke:#000000;stroke-width:0.8;"/>
      </defs>
      <g>
       <use style="stroke:#000000;stroke-width:0.8;" x="604.67976" xlink:href="#mcd813718c9" y="119.39976"/>
      </g>
     </g>
     <g id="text_22">
      <text style="font-family:Arial;font-size:9px;font-stretch:normal;font-style:normal;font-weight:normal;text-anchor:start;" transform="rotate(-0, 611.67976, 122.620776)" x="611.67976" y="122.620776">1.0e-09</text>
     </g>
    </g>
    <g id="ytick_17">
     <g id="line2d_48">
      <g>
       <use style="stroke:#000000;stroke-width:0.8;" x="604.67976" xlink:href="#mcd813718c9" y="104.99976"/>
      </g>
     </g>
     <g id="text_23">
      <text style="font-family:Arial;font-size:9px;font-stretch:normal;font-style:normal;font-weight:normal;text-anchor:start;" transform="rotate(-0, 611.67976, 108.220776)" x="611.67976" y="108.220776">1.0e-10</text>
     </g>
    </g>
    <g id="ytick_18">
     <g id="line2d_49">
      <g>
       <use style="stroke:#000000;stroke-width:0.8;" x="604.67976" xlink:href="#mcd813718c9" y="90.59976"/>
      </g>
     </g>
     <g id="text_24">
      <text style="font-family:Arial;font-size:9px;font-stretch:normal;font-style:normal;font-weight:normal;text-anchor:start;" transform="rotate(-0, 611.67976, 93.820776)" x="611.67976" y="93.820776">1.0e-11</text>
     </g>
    </g>
    <g id="ytick_19">
     <g id="line2d_50">
      <g>
       <use style="stroke:#000000;stroke-width:0.8;" x="604.67976" xlink:href="#mcd813718c9" y="76.19976"/>
      </g>
     </g>
     <g id="text_25">
      <text style="font-family:Arial;font-size:9px;font-stretch:normal;font-style:normal;font-weight:normal;text-anchor:start;" transform="rotate(-0, 611.67976, 79.420776)" x="611.67976" y="79.420776">1.0e-12</text>
     </g>
    </g>
    <g id="ytick_20">
     <g id="line2d_51">
      <g>
       <use style="stroke:#000000;stroke-width:0.8;" x="604.67976" xlink:href="#mcd813718c9" y="61.79976"/>
      </g>
     </g>
     <g id="text_26">
      <text style="font-family:Arial;font-size:9px;font-stretch:normal;font-style:normal;font-weight:normal;text-anchor:start;" transform="rotate(-0, 611.67976, 65.020776)" x="611.67976" y="65.020776">1.0e-13</text>
     </g>
    </g>
    <g id="ytick_21">
     <g id="line2d_52">
      <g>
       <use style="stroke:#000000;stroke-width:0.8;" x="604.67976" xlink:href="#mcd813718c9" y="47.39976"/>
      </g>
     </g>
     <g id="text_27">
      <text style="font-family:Arial;font-size:9px;font-stretch:normal;font-style:normal;font-weight:normal;text-anchor:start;" transform="rotate(-0, 611.67976, 50.620776)" x="611.67976" y="50.620776">1.0e-15</text>
     </g>
    </g>
   </g>
   <g id="LineCollection_1"/>
   <g id="patch_27">
    <path d="M 593.87976 40.19976 &#10;L 593.87976 54.59976 &#10;L 593.87976 112.19976 &#10;L 593.87976 126.59976 &#10;L 604.67976 126.59976 &#10;L 604.67976 112.19976 &#10;L 604.67976 54.59976 &#10;L 604.67976 40.19976 &#10;z&#10;" style="fill:none;"/>
   </g>
   <g id="text_28">
    <text style="font-family:Arial;font-size:9px;font-stretch:normal;font-style:normal;font-weight:normal;text-anchor:middle;" transform="rotate(-0, 599.27976, 34.19976)" x="599.27976" y="34.19976">FDR</text>
   </g>
  </g>
  <g id="axes_5">
   <g id="patch_28">
    <path d="M 587.39976 244.24776 &#10;L 648.95976 244.24776 &#10;L 648.95976 138.49416 &#10;L 587.39976 138.49416 &#10;z&#10;" style="fill:none;"/>
   </g>
   <g id="PathCollection_3">
    <g clip-path="url(#pee3812d903)">
     <use style="fill:#ffffff;fill-opacity:0.6;stroke:#ffffff;stroke-opacity:0.6;" x="618.17976" xlink:href="#m39db9cf309" y="191.37096"/>
    </g>
   </g>
   <g id="matplotlib.axis_9">
    <g id="xtick_12"/>
    <g id="xtick_13"/>
    <g id="xtick_14"/>
   </g>
   <g id="matplotlib.axis_10">
    <g id="ytick_22"/>
    <g id="ytick_23"/>
    <g id="ytick_24"/>
    <g id="ytick_25"/>
    <g id="ytick_26"/>
   </g>
  </g>
  <g id="axes_6">
   <g id="PathCollection_4">
    <defs>
     <path d="M 0 7.859052 &#10;C 2.084245 7.859052 4.083405 7.030973 5.557189 5.557189 &#10;C 7.030973 4.083405 7.859052 2.084245 7.859052 0 &#10;C 7.859052 -2.084245 7.030973 -4.083405 5.557189 -5.557189 &#10;C 4.083405 -7.030973 2.084245 -7.859052 0 -7.859052 &#10;C -2.084245 -7.859052 -4.083405 -7.030973 -5.557189 -5.557189 &#10;C -7.030973 -4.083405 -7.859052 -2.084245 -7.859052 0 &#10;C -7.859052 2.084245 -7.030973 4.083405 -5.557189 5.557189 &#10;C -4.083405 7.030973 -2.084245 7.859052 0 7.859052 &#10;z&#10;" id="mf6f9bdbdca" style="stroke:#c99b82;stroke-width:2.2;"/>
    </defs>
    <g clip-path="url(#pb2787de15f)">
     <use style="fill:#fe9f6d;stroke:#c99b82;stroke-width:2.2;" x="610.07976" xlink:href="#mf6f9bdbdca" y="166.288375"/>
    </g>
   </g>
   <g id="PathCollection_5">
    <defs>
     <path d="M 0 9.548637 &#10;C 2.532328 9.548637 4.96128 8.542532 6.751906 6.751906 &#10;C 8.542532 4.96128 9.548637 2.532328 9.548637 0 &#10;C 9.548637 -2.532328 8.542532 -4.96128 6.751906 -6.751906 &#10;C 4.96128 -8.542532 2.532328 -9.548637 0 -9.548637 &#10;C -2.532328 -9.548637 -4.96128 -8.542532 -6.751906 -6.751906 &#10;C -8.542532 -4.96128 -9.548637 -2.532328 -9.548637 0 &#10;C -9.548637 2.532328 -8.542532 4.96128 -6.751906 6.751906 &#10;C -4.96128 8.542532 -2.532328 9.548637 0 9.548637 &#10;z&#10;" id="m1dbde9e2c6" style="stroke:#c99b82;stroke-width:2.2;"/>
    </defs>
    <g clip-path="url(#pb2787de15f)">
     <use style="fill:#fe9f6d;stroke:#c99b82;stroke-width:2.2;" x="610.07976" xlink:href="#m1dbde9e2c6" y="191.968326"/>
    </g>
   </g>
   <g id="PathCollection_6">
    <defs>
     <path d="M 0 12.247449 &#10;C 3.248061 12.247449 6.363528 10.95698 8.660254 8.660254 &#10;C 10.95698 6.363528 12.247449 3.248061 12.247449 0 &#10;C 12.247449 -3.248061 10.95698 -6.363528 8.660254 -8.660254 &#10;C 6.363528 -10.95698 3.248061 -12.247449 0 -12.247449 &#10;C -3.248061 -12.247449 -6.363528 -10.95698 -8.660254 -8.660254 &#10;C -10.95698 -6.363528 -12.247449 -3.248061 -12.247449 0 &#10;C -12.247449 3.248061 -10.95698 6.363528 -8.660254 8.660254 &#10;C -6.363528 10.95698 -3.248061 12.247449 0 12.247449 &#10;z&#10;" id="m46c9761a7e" style="stroke:#c99b82;stroke-width:2.2;"/>
    </defs>
    <g clip-path="url(#pb2787de15f)">
     <use style="fill:#fe9f6d;stroke:#c99b82;stroke-width:2.2;" x="610.07976" xlink:href="#m46c9761a7e" y="221.572816"/>
    </g>
   </g>
   <g id="text_29">
    <text style="font-family:Arial;font-size:9px;font-stretch:normal;font-style:normal;font-weight:normal;text-anchor:start;" transform="rotate(-0, 626.27976, 169.744862)" x="626.27976" y="169.744862">10</text>
   </g>
   <g id="text_30">
    <text style="font-family:Arial;font-size:9px;font-stretch:normal;font-style:normal;font-weight:normal;text-anchor:start;" transform="rotate(-0, 626.27976, 195.424813)" x="626.27976" y="195.424813">15</text>
   </g>
   <g id="text_31">
    <text style="font-family:Arial;font-size:9px;font-stretch:normal;font-style:normal;font-weight:normal;text-anchor:start;" transform="rotate(-0, 626.27976, 225.029303)" x="626.27976" y="225.029303">25</text>
   </g>
   <g id="text_32">
    <text style="font-family:Arial;font-size:9px;font-stretch:normal;font-style:normal;font-weight:normal;text-anchor:middle;" transform="rotate(-0, 616.55976, 150.11976)" x="616.55976" y="150.11976">Gene count</text>
   </g>
  </g>
 </g>
 <defs>
  <clipPath id="p9944a31397">
   <rect height="315.815145" width="384.369866" x="162.257187" y="21.207656"/>
  </clipPath>
  <clipPath id="pfb54265fc6">
   <rect height="315.815145" width="96.092467" x="553.107053" y="21.207656"/>
  </clipPath>
  <clipPath id="pd5a28f1d3e">
   <rect height="108" width="64.8" x="587.39976" y="22.19976"/>
  </clipPath>
  <clipPath id="p4b0fab2cea">
   <rect height="86.4" width="10.8" x="593.87976" y="40.19976"/>
  </clipPath>
  <clipPath id="pee3812d903">
   <rect height="105.7536" width="61.56" x="587.39976" y="138.49416"/>
  </clipPath>
  <clipPath id="pb2787de15f">
   <rect height="146.88" width="32.4" x="593.87976" y="156.11976"/>
  </clipPath>
 </defs>
</svg>